<svg width="320" height="299" viewBox="0 0 320 299" fill="none" xmlns="http://www.w3.org/2000/svg">
<path fill-rule="evenodd" clip-rule="evenodd" d="M316.313 141.302L266.493 93.6397V21.3135C266.493 18.4872 265.37 15.7766 263.372 13.7781C261.373 11.7795 258.662 10.6568 255.836 10.6568H223.866C221.039 10.6568 218.329 11.7795 216.33 13.7781C214.332 15.7766 213.209 18.4872 213.209 21.3135V42.6271L174.632 5.74134C171.022 2.09139 165.653 0 159.852 0C154.071 0 148.716 2.09139 145.106 5.748L3.43706 141.289C-0.705759 145.285 -1.22528 151.859 2.54456 156.188C3.49122 157.281 4.65034 158.17 5.95139 158.8C7.25243 159.431 8.66818 159.79 10.1125 159.856C11.5568 159.922 12.9994 159.694 14.3526 159.185C15.7057 158.675 16.9411 157.896 17.9836 156.894L156.189 24.8303C157.18 23.8817 158.5 23.3523 159.872 23.3523C161.244 23.3523 162.563 23.8817 163.555 24.8303L301.773 156.894C303.81 158.847 306.537 159.912 309.357 159.857C312.177 159.803 314.861 158.632 316.82 156.601C320.909 152.365 320.569 145.372 316.313 141.302ZM163.555 46.1438C162.563 45.1952 161.244 44.6658 159.872 44.6658C158.499 44.6658 157.18 45.1952 156.188 46.1438L33.5689 163.282C33.0482 163.78 32.6339 164.378 32.3511 165.041C32.0683 165.704 31.923 166.418 31.9238 167.138L31.9038 277.076C31.9038 282.729 34.1493 288.15 38.1464 292.147C42.1435 296.144 47.5647 298.39 53.2174 298.39H117.225C120.051 298.39 122.762 297.267 124.76 295.268C126.759 293.27 127.881 290.559 127.881 287.733V248.33H191.822V287.733C191.822 290.559 192.945 293.27 194.943 295.268C196.942 297.267 199.652 298.39 202.479 298.39H266.459C272.112 298.39 277.533 296.144 281.53 292.147C285.527 288.15 287.773 282.729 287.773 277.076V167.138C287.774 166.418 287.628 165.704 287.346 165.041C287.063 164.378 286.649 163.78 286.128 163.282L163.555 46.1438ZM198.006 135.562C193.85 133.667 188.93 132.72 183.247 132.72H155.469V167.573H126.775V133.103H111.923V206.443H126.775V180.132H155.469V196.892H155.927V206.443H170.779V179.199H183.247C188.93 179.199 193.85 178.282 198.006 176.449C202.223 174.554 205.462 171.865 207.724 168.382C209.985 164.837 211.116 160.711 211.116 156.005C211.116 151.238 209.985 147.113 207.724 143.629C205.462 140.146 202.223 137.457 198.006 135.562ZM170.779 167.098H182.421C186.883 167.098 190.275 166.151 192.597 164.256C194.92 162.3 196.081 159.55 196.081 156.005C196.081 152.4 194.92 149.649 192.597 147.755C190.275 145.799 186.883 144.821 182.421 144.821H170.779V167.098Z" fill="#00C898"/>
</svg>
