<svg fill="none" height="750" viewBox="0 0 750 750" width="750" xmlns="http://www.w3.org/2000/svg"><g clip-rule="evenodd" fill-rule="evenodd"><path d="m328.813 165.522c-37.43 3.267-268.2607 234.703-285.6873 327.791-17.4227 93.092 95.1873 126.002 185.6263 105.022 90.44-20.983 144.186-97.582 284.634-21.236 84.767 46.082 227.866-3.361 191.779-128.837-36.083-125.476-302.227-289.219-376.352-282.74z" fill="#64fcd9"/><path d="m503.386 529.695c11.102-3.314 29.144-8.574 40.217-11.14 16.88-3.912 13.775-20.31-3.468-23.367-17.244-3.057-71.672-4.5-101.254-5.172-8.287.354-14.657-1.31-33.295-2.551-17.134-1.142-36.927-20.973-52.466-54.599 0 0-30.321 7.334-67.745-3.198l-5.777-2.341s2.621 4.015 1.466 9.316c0 0-.704-10.654-4.701-7.72 0 0 .784 12.572.323 15.822 0 0-1.908-16.884-3.927-15.352 0 0 .112 7.489-1.339 11.623 0 0-.209-8.252-3.287-11.307 0 0-2.251 11.761-1.608 18.457 0 0-3.031-12.674-2.758-15.77 0 0-1.839 5.894-1.718 11.763 0 0-1.019-1.49-2.296-9.639 0 0-1.253-.798-1.022 7.861.232 8.662-.736 10.588-1.329 3.913-.592-6.673-2.624-8.242-3.861-7.986-4.504 5.127-15.897 13.564-63.09 2.66 0 0-7.924-.67-31.55 8.063 0 0 1.864.645-25.671 4.69 0 0-12.74 3.21 5.232 10.602 0 0 13.461 3.743 32.702 4.098 19.239.354 34.394 3.364 42.245 19.932 7.852 16.569 7.55 32.035 32.979 37.929 0 0-29.689-1.44 4.57 34.345 0 0-14.375-9.271-20.725-10.897-6.352-1.626-20.16-12.973-24.241-28.436s-9.217-38.276-21.427-44.442c-12.207-6.165-38.466 9.251-74.256-18.234-3.09-1.622 32.038-12.999 52.6-15.754 0 0 17.625-3.29 25.339-7.561 0 0 7.55-4.322 23.505-2.814 0 0 3.213 1.606 2.506-6.859 0 0 1.073-5.989-4.647-5.887l-36.611-.413s-6.989.51-7.577-9.17l-.382-4.231s-1.171-3.931 2.996-10.823c4.168-6.893 54.728-60.599 54.728-60.599s5.926-4.595 10.197-2.512c4.27 2.083 3.906 4.142 2.786 12.482-1.119 8.341-4.679 50.932-4.679 50.932s-.939 5.287 7.077 5.194c8.014-.093 11.495-.643 11.488 5.01-.005 5.651 2.415 15.097-5.245 15.645-7.66.549-13.238-3.814-12.174 4.995 0 0 2.037 6.386-1.858 9.832 0 0 14.619.077 24.131-1.374 0 0 12.084-12.788 21.158-11.498 0 0 8.105 4.15 7.857.805 0 0-1.658-3.376-1.874-6.462 0 0-3.176-40.449-3.053-51.788 0 0 .218-19.198 1.249-33.265 1.032-14.066 7.341-16.309 16.858-17.461s34.412-3.918 50.042.747c15.628 4.663 11.352 14.761 11.509 19.921.157 5.159 1.335 52.817-.007 75.786 0 0-.468 3.947-1.255 10.995s3.354 28.287 15.597 30.335c0 0 16.764-1.106 20.447-5.09 0 0 39.676-46.297 56.1-62.925 0 0 10.454-6.106 12.156-.209 0 0-1.243 20.284-1.836 31.091l-2.665 28.119s-2.149 7.02 7.511 7.62c0 0 11.271-4.184 11.521 6.316 0 0 .431 12.606-1.974 13.257-2.407.648-12.013-.138-12.013-.138s-4.015-1.408-3.877 2.407c.137 3.814-.191 11.682-.191 11.682s-4.79 1.753 22.643 1.29c27.436-.464 50.897 3.15 50.649 3.37-.247.22 41.103-1.313 43.848 15.111 2.748 16.424-17.125 14.477-18.366 27.848-1.243 13.373 2.235 13.205 29.119 26.47 0 0-32.224-.171-44.841-21.734-6.508-11.12-25.443-10.087-37.415-7.616-5.823 1.738-9.738 2.942-9.738 2.942 1.358-.762 5.004-1.965 9.738-2.942zm-64.595-108.512s-.312-6.033-3.791-.949c-3.478 5.087-16.38 24.464-16.38 24.464s-2.544 2.373.259 2.8c2.801.429 13.345 1.887 16.321.933 2.975-.953 1.951-2.175 2.658-4.837.708-2.662.933-22.411.933-22.411zm-102.389-74.084c0-3.857-3.126-6.985-6.98-6.985h-19.072c-3.854 0-6.98 3.128-6.98 6.985v52.861c0 3.857 3.126 6.986 6.98 6.986h19.072c3.854 0 6.98-3.129 6.98-6.986 0-12.835 0-40.026 0-52.861zm-126.181 21.252-17.595 27.085c1.622 2.693 8.538 2.718 15.633 2.725.748 0 2.621-.481 3.338-.465l1.444-28.696c-.746-1.162-1.669-1.462-2.82-.649z" fill="#fff"/><path d="m480.407 295.109c-3.294-2.734-4.401-5.988-2.341-8.565 1.018-1.271 3.062-1.952 4.768-2.349 1.209-.281 3.107 2.285 3.261 3.86.017.168-.146.345-.187.527-.57 2.582 0 3.678 2.256 4.744 1.026.484 2.174 1.004 2.85 1.844.472.588.281 1.742.321 2.647.094 1.933.143 3.869.216 5.803.013.281.053.56.082.84-.318-.027-.855.046-.92-.098-.485-1.059-1.959-1.643-1.047-3.399.566-1.087.143-2.71.077-4.088-.016-.321-.39-.624-.598-.936-.2.325-.554.641-.57.976-.163 2.878-.273 5.76-.371 8.641-.004.139.281.278.412.433 1.176 1.387 2.956 1.88 4.128.922 1.381-1.129 1.466-2.633.729-4.23-.643-1.394-1.409-2.793-.452-4.372.122-.207.13-.487.192-.733.093.219.162.456.293.654 1.714 2.658 2.117 5.536 2.048 8.696-.074 3.412-1.633 5.852-3.75 8.201-.232.257-.159 1.057.069 1.416 1.348 2.127 1.861 4.476 1.958 6.931.171 4.176.281 8.353.42 12.53.032 1.02 1.779 2.202-.363 3.102-.228.095.208 1.735.31 2.661.049.42.037.847.053 1.272.045 1.518 1.388.934 2.133 1.319.236-.51.75-1.074.66-1.518-.216-1.076-.709-2.097-1.091-3.14.851.636 1.624 1.458 2.573 1.874 3.156 1.382 6.372 2.618 9.467 4.011-.86.238-1.621.503-2.374.482-1.368-.037-2.736-.375-4.1-.353-3.066.051-6.124.342-9.186.352-2.59.008-5.175-.295-7.765-.353-1.022-.022-2.064.412-3.082.351-3.098-.186-6.193-.5-9.287-.793-.831-.079-1.649-.306-2.476-.392-2.585-.267-5.175-.528-7.764-.73-1.01-.078-2.028.008-3.042.019.228.696.456 1.391.676 2.088.012.038-.057.098-.049.142.301 2.053.643 4.101.9 6.159.163 1.348.932 1.844 2.166 1.686 3.489-.446 6.967-.992 10.464-1.395 2.569-.296 5.159-.583 7.74-.582 1.812 0 3.616.517 5.428.757 2.26.299 4.528.513 6.783.836 1.389.198 2.753.573 4.137.792 2.427.384 4.858.803 7.3 1.024 1.393.125 3.083.334 4.17-.301 1.437-.841 1.51-2.584.704-4.194-.159-.326-.195-.949.004-1.188 1.767-2.102.163-3.164-1.246-4.305 4.272.54 8.376 4.211 9.398 8.381.041.172.387.384.354.442-1.506 2.653 1.083 2.532 2.195 2.85 3.2.913 6.478 1.61 9.763 2.152 2.191.363 4.451.324 6.682.449 2.59.146 5.183.425 7.769.365 2.268-.053 4.519-.613 6.791-.734 2.549-.138 5.11.003 7.667-.055 1.03-.024 2.056-.322 3.091-.377 3.245-.171 6.498-.219 9.735-.448 1.596-.112 3.164-.69 4.756-.743 1.84-.06 3.684.295 5.529.347 2.956.083 5.879-.082 8.876.267 4.023.468 7.981 1.074 11.897 2.036 6.511 1.599 12.488 4.359 18.172 7.931 5.2 3.269 9.911 7.136 14.133 11.492 7.162 7.383 13.4 15.549 18.538 24.498 4.125 7.183 8.164 14.415 12.223 21.638 4.508 8.019 8.876 16.124 11.425 25.024 1.299 4.519 2.28 9.141 3.213 13.758 1.498 7.428 2.683 14.929 5.928 21.879.277.592.326 1.289.485 1.938-.367-.543-.802-1.053-1.087-1.636-3.685-7.538-5.986-15.496-7.851-23.678-1.665-7.305-3.929-14.517-6.498-21.561-2.431-6.652-5.358-13.154-8.526-19.497-4.361-8.733-9.422-17.102-15.513-24.75-4.605-5.776-9.487-11.34-14.373-16.879-5.802-6.575-12.414-12.206-20.558-15.645-3.925-1.658-8.049-3.19-12.231-3.816-6.067-.908-12.264-1.043-18.412-1.296-2.044-.084-4.112.609-6.181.72-2.549.137-5.11.005-7.663.059-.83.017-1.649.292-2.479.382-2.692.291-5.383.616-8.078.8-1.78.121-3.587-.109-5.359.048-4.605.409-9.161.354-13.758-.369-3.139-.495-6.388-.237-9.56-.595-2.305-.26-4.54-1.104-6.84-1.458-2.818-.434-5.68-.549-8.502-.954-1.975-.284-3.905-.901-5.879-1.228-2.211-.365-4.455-.571-6.682-.847-1.022-.127-2.052-.208-3.066-.389-1.91-.343-3.803-1.02-5.712-1.068-5.746-.143-11.491-.098-17.236-.034-3.387.039-6.767.232-10.15.403-1.169.059-2.329.338-3.498.381-4.576.17-9.161.39-13.742.377-2.15-.006-4.295-.516-6.449-.766-2.606-.303-5.273-.322-7.81-.92-3.123-.735-6.136-1.935-9.193-2.942-12.541-4.131-25.078-8.278-37.622-12.391-5.978-1.959-11.978-3.853-17.966-5.782-.19-.061-.36-.184-.54-.279.187-.041.383-.143.558-.115 1.61.256 3.243.425 4.817.828 4.309 1.1 8.646 2.131 12.873 3.497 8.45 2.731 16.849 5.626 25.233 8.556 1.592.556 1.893.176 2.089-1.371.378-2.97 1.038-5.904 1.559-8.857.049-.304-.073-.638-.106-.958-.13-1.218.391-1.652 1.588-1.294 3.864 1.155 7.732 2.302 11.584 3.5.77.239 1.087.358 1.246-.702.745-4.972 1.547-9.938 2.484-14.878.606-3.228 1.571-6.388 2.194-9.614.481-2.466.583-5.003 1.022-7.478.416-2.336 1.104-4.621 1.596-6.945.713-3.384 1.759-6.764 1.922-10.181.179-3.752.249-7.788-3.387-10.444-.216-.158-.355-.444-.587-.56-.643-.323-1.311-.589-1.97-.877.83-.289 1.649-.625 2.496-.852.863-.231 1.746-.445 2.634-.502 1.543-.1 1.136-.842.464-1.458-.904-.827-1.962-1.478-2.923-2.245-.285-.227-.465-.589-.688-.89.297-.204.582-.553.899-.586 1.234-.126 2.48-.096 3.706-.247.39-.048.92-.401 1.058-.747.521-1.28.908-2.615 1.344-3.929.904.964 1.694 2.079 2.74 2.852 1.258.93 2.724 1.578 4.116 2.325.216.117.493.113.746.165-.216.22-.428.446-.648.659-.989.945-2.023 1.846-2.956 2.842-.611.654-.244 1.092.509.806 3.164-1.195 5.831.792 8.734 1.254.175.028.338.135.509.205-.175.066-.35.148-.53.194-2.658.684-5.321 1.358-7.98 2.044-2.052.53-1.983.516-1.27 2.948 1.404 4.792 2.777 9.595 4.067 14.42.851 3.173 1.662 6.368 2.264 9.596.615 3.292 1.022 6.628 1.397 9.96.256 2.265.639 4.601.334 6.818-.318 2.319.333 4.054 1.661 5.756 2.394 3.071 5.452 4.622 9.393 4.999 4.21.403 8.221-.247 12.219-1.27 2.321-.594 2.541-1.462 1.446-4.295-1.658-4.269-.029-10.887 3.973-13.101 2.093-1.159 3.286-2.392 4.003-4.469.163-.464.7-.786 1.006-1.216.171-.24.366-.767.293-.823-.371-.278-.863-.674-1.242-.609-2.455.424-3.522 1.845-3.347 4.253.02.256-.057.517-.085.776-.147-.207-.269-.432-.436-.618-2.37-2.629-2.736-5.843-2.578-9.17.013-.235.933-.683 1.328-.591 1.03.238 2.048.628 2.984 1.126 2.325 1.239 1.666-.668 1.613-1.593-.192-3.269-.481-6.534-.815-9.792-.053-.511-.504-.981-.769-1.47-.143.41-.346.81-.411 1.232-.346 2.219-.648 4.446-.998 6.664-.045.296-.273.562-.419.843-.094-.22-.147-.479-.298-.651-.354-.41-.761-.78-1.042-1.268.306-.422.591-.717.696-1.067.884-2.914.277-5.697-.798-8.431-.093-.238-.195-.474-.293-.711-.281.142-.712.219-.806.44-.236.558-.395 1.173-.456 1.778-.252 2.586-.077 5.117 1.148 7.481zm-39.495-6.322c-.138.692-.46 1.407-.374 2.071.35 2.779-.444 5.368-1.283 7.915-1.209 3.673-.501 6.551 2.814 8.766 1.233.826 2.227 2.013 3.318 3.052.407.389.769.826 1.152 1.241.293-.638.867-1.295.831-1.912-.09-1.349-.464-2.684-.762-4.015-.871-3.873-1.836-7.726-2.605-11.619-.302-1.534-.18-3.154-.233-4.736-.008-.176.11-.357.171-.536.078.157.176.308.224.472.925 3.058 2.008 6.081 2.72 9.188.623 2.731.884 5.551 1.214 8.343.256 2.206.374 4.43.553 6.645.017.206.098.575.045.595-3.408 1.282-6.091 3.57-8.734 5.996-1.4 1.288-1.005 2.121.086 3.164 2.219 2.124 4.617 3.869 7.773 4.369.676.107 1.567.684 1.783 1.261.159.418-.59 1.237-1.034 1.796-.318.396-.794.669-1.213.974-2.089 1.51-4.072 3.204-6.303 4.463-2.175 1.229-1.165 2.154-.033 3.153.501.443 1.201.868 1.836.913 3.103.221 6.226.215 9.324.487 1.56.136 1.515-.737 1.332-1.661-.814-4.07-1.71-8.124-2.565-12.187-.46-2.212-.924-4.426-1.315-6.652-.061-.34.26-.747.403-1.123.081.283.171.564.236.85 1.225 5.132 2.431 10.269 3.697 15.39.085.332.627.551.953.822.081-.216.252-.447.224-.647-.265-1.765-.542-3.529-.855-5.285-.509-2.821-1.092-5.63-1.564-8.457-.59-3.55-1.087-7.115-1.653-10.669-.375-2.353-.757-4.706-1.217-7.043-.737-3.741-1.438-7.495-2.362-11.191-.794-3.176-1.938-6.263-2.826-9.419-1.176-4.176-3.074-8.313-.961-12.77.11-.226-.452-1.07-.818-1.16-.745-.183-1.588-.158-2.353-.016-.925.172-1.043 1.125-.485 1.509 1.775 1.219.533 2.425-.187 3.073-1.026.923-.92 1.699-.595 2.765 1.14 3.717 1.405 7.566 1.641 11.825zm24.634 54.045c.826.136 1.645.331 2.475.396 2.158.17 4.324.272 6.486.424 1.641.116 3.278.304 4.919.396 2.952.164 5.912.199 8.856.444 2.032.168 4.43-.924 4.682-2.682.22-1.52 0-3.117-.142-4.669-.102-1.079-.546-2.135-.579-3.209-.085-2.763.021-5.531-.048-8.295-.045-1.872-.151-3.756-.432-5.604-.134-.867-.717-1.672-1.136-2.485-.155-.3-.423-.541-.639-.809-.074.37-.216.743-.208 1.111.118 4.09.289 8.179.358 12.27.009.426-.509 1.212-.83 1.238-4.247.352-8.498.636-12.757.852-1.983.1-3.982-.035-5.969.03-2.549.083-5.093.249-7.638.398-2.069.121-4.141.232-6.205.454-.241.026-.644.777-.579 1.111.42 2.077.88 4.151 1.47 6.185.379 1.303 1.149 2.059 2.789 1.936 1.552-.115 3.144.317 5.127.508zm-21.58 11.013c1.368.136 2.732.307 4.1.4 2.406.164 4.825.19 7.223.442 2.268.237 3.746-.779 3.473-3.019-.24-1.985-1.698-4.014-1.409-5.827.452-2.818-1.29-2.118-2.601-2.394-.196-.042-.383-.158-.578-.171-2.472-.155-4.943-.314-7.415-.421-.269-.012-.55.291-.822.448.146.24.256.518.443.714.945.975 1.89 1.953 2.879 2.883 1.551 1.462 3.135 2.895 4.723 4.32.277.248.648.392.973.584.07-.174.208-.354.196-.522-.118-1.598-.289-3.193-.375-4.793-.016-.339.273-.692.42-1.039.24.127.667.224.692.384.329 2.181.692 4.366.83 6.564.029.416-.407 1.583-1.608.834-1.213-.76-2.744-1.071-3.852-1.942-2.899-2.282-5.611-4.799-8.453-7.153-2.54-2.103-5.236-4.008-8.794-3.076-.778.205-1.735.982-1.995 1.714-.974 2.753-1.588 5.633-2.557 8.389-.387 1.111.244 1.36.842 1.423 4.414.471 8.836.85 13.665 1.258zm38.273-38.749c-1.783.383-2.459 1.461-2.259 3.282.224 2.063.285 4.144.427 6.216.126 1.825.253 3.651.432 5.471.016.194.387.515.582.505 1.914-.094 3.831-.42 5.729-.334 1.901.086 1.905-.953 1.808-2.269-.143-1.936-.289-3.873-.403-5.811-.041-.745.228-1.6-.049-2.222-.908-2.027-.2-3.642 1.009-5.188 1.132-1.441 2.321-2.835 3.425-4.296.175-.229.13-.969.004-1.018-.485-.193-1.083-.364-1.572-.253-1.181.269-2.484.482-3.412 1.163-.444.328-.155 1.665-.187 2.545-.012.239.114.544.008.71-1.091 1.715-3.139 2.298-5.542 1.499zm-61.889 21.21c-.924-.382-1.824-.945-2.781-1.079-.586-.082-1.775.431-1.82.785-.293 2.363-.488 4.757-.452 7.137.041 2.651 1.645 4.653 3.498 5.008 1.315.252 2.581.726 3.88 1.077 1.14.31 2.679 1.17 3.343.729.851-.564 1.103-2.159 1.429-3.36.383-1.415.318-2.997.9-4.304.932-2.092.749-2.751-1.498-3.561-2.052-.743-4.064-1.617-6.499-2.432zm14.658-14.276c.338-1.499.782-2.982.994-4.499.358-2.59.525-5.205.851-7.8.187-1.481.619-2.935.753-4.417.049-.521-.452-1.091-.7-1.639-.363.408-.786.778-1.063 1.237-.183.309-.171.743-.224 1.124-.142 1.05-.228 2.111-.419 3.153-.375 2.054-.851 4.089-1.197 6.147-.399 2.36-.664 4.742-1.043 7.105-.44 2.725-.973 5.436-1.404 8.163-.334 2.112-.607 4.237-.856 6.362-.061.546.078 1.116.123 1.676.378-.448.969-.844 1.091-1.352.423-1.787.627-3.627 1.022-5.421.716-3.221 1.51-6.425 2.072-9.839zm-.814 9.789c-.204 1.298-.428 2.593-.599 3.894-.04.306.09.635.143.953.281-.112.586-.182.835-.344 2.402-1.573 4.715-3.317 7.227-4.687 1.4-.765 1.254-1.485.46-2.294-1.592-1.616-3.298-3.123-5.016-4.601-.2-.17-1.12.042-1.173.227-.615 2.2-1.132 4.427-1.877 6.852zm3.461-21.822c0 1.875.008 3.749-.004 5.623-.008 1.06.663 1.489 1.604.913 1.246-.766 2.459-1.596 3.66-2.433 1.197-.837 1.1-1.7-.028-2.533-1.038-.764-2.174-1.428-3.082-2.324-1.01-.997-1.662-1.22-2.15.754zm75.325 39.565c-1.254-1.192-1.404-1.235-1.657-.342-.704 2.491-.847 5.059.603 7.301.354.553 1.787.544 2.716.506.281-.011.696-.969.749-1.523.224-2.258-.367-4.253-2.411-5.942zm-82.858-5.914c.473-1.016.977-2.019 1.385-3.061.073-.195-.192-.593-.403-.794-.07-.067-.497.132-.676.302-1.018.976-1.002 2.131-.306 3.553zm24.634-5.099c.168.137.336.274.505.411.122-.45.24-.899.362-1.349-.291.177-.582.354-.867.938zm1.323 2.447c-.097-.339-.194-.679-.286-1.019-.194.051-.387.102-.581.153.212.357.424.714.867.866z" fill="#00160a"/><path d="m312.654 126.652c2.036-2.055 4.07-4.111 6.118-6.153.047-.047.358.043.382.121 1.31 4.167 5.235 3.804 8.344 4.78 1.797.564 3.738.681 5.517 1.285 4.099 1.392 8.212 2.791 12.173 4.522 2.076.908 3.734 2.746 5.781 3.758 2.151 1.063 4.394 1.604 7.042 1.206 3.045-.457 6.246.248 9.379.249 9.129.003 17.667 2.422 25.906 6.141 3.379 1.526 5.462 4.211 5.014 7.848-.195 1.582-2.099 3.126-3.517 4.35-3.803 3.278-8.66 4.36-13.303 5.676-4.499 1.276-9.193 1.722-13.898 1.703-.472-.002-.957.046-1.411-.046-.222-.044-.39-.359-.581-.551.231-.073.459-.17.695-.215 5.725-1.092 11.452-2.174 17.175-3.272.83-.16 1.642-.412 2.468-.597 3.062-.687 3.603-4.304 2.11-6.375-1.26-1.747-3.004-2.85-5.431-3.023-2.702-.193-5.339-1.169-8.04-1.546-2.806-.391-5.662-.404-8.482-.709-2.986-.324-5.945-.916-8.935-1.157-1.618-.131-3.278.357-4.916.334-4.108-.057-8.214-.364-12.319-.339-2.616.015-5.224.522-7.844.662-2.54.135-5.09.051-7.634.128-.829.026-1.647.314-2.479.38-3.687.296-7.386.481-11.065.851-2.876.288-5.723.857-8.596 1.184-4.124.469-8.268.774-12.39 1.26-2.47.292-4.913.81-7.373 1.198-1.875.296-3.778.446-5.631.843-3.184.683-6.345 1.488-9.505 2.28-2.23.559-4.462 1.121-6.657 1.799-1.372.423-2.683 1.053-4 1.64-.073.032-.024.706.099.756 2.441.99 4.871 2.025 7.37 2.848 1.43.47 2.97.636 4.474.839 2.371.32 4.747.68 7.131.796 2.691.13 5.394.024 8.091-.027.201-.004.587-.421.563-.6-.438-3.203-.026-4.15 3.345-5.002 5.557-1.405 11.188-2.525 16.8-3.708 2.678-.564 5.37-1.103 8.082-1.45 1.9-.243 3.847-.104 5.77-.203 2.644-.136 5.324-.114 7.919-.567 3.067-.535 5.909.132 8.765.948.397.114.628.806.935 1.23-.426.01-.852.029-1.279.029-4.298.002-8.597-.05-12.895.018-3.18.05-6.364.189-9.537.414-2.158.152-4.33.384-6.445.823-4.796.998-9.568 2.117-14.336 3.248-1.715.406-3.37 1.07-5.089 1.458-1.185.267-1.514.432-.483 1.463 5.193 5.191 11.46 8.344 18.605 9.643 2.278.415 4.699-.006 7.047.114.61.031 1.254.581 1.767 1.027.478.417.703 1.18 1.22 1.486.582.343 1.364.343 2.059.493.029-.648.187-1.323.059-1.938-.224-1.078.039-1.691 1.111-2.113 4.806-1.893 9.768-2.382 14.787-1.356 1.05.214 1.854 1.639 2.768 2.51.143.137.386.3.381.444-.041 1.121.441 1.618 1.696 1.424 7.58-1.174 14.57-3.724 20.238-9.12 1.879-1.788 3.549-3.796 5.322-5.697.214-.228.476-.411.717-.615.003.369.112.776-.006 1.099-1.578 4.288-4.719 7.14-8.513 9.472-4.196 2.579-8.745 4.165-13.494 5.285-2.699.637-5.363 1.639-8.094 1.871-4.011.34-8.073.262-12.107.129-3.753-.123-7.64-.011-11.214-.964-6.232-1.662-12.378-3.701-18.206-6.658-2.558-1.298-5.584-1.809-8.461-2.302-3.306-.567-6.695-1.078-10.027-.971-5.444.175-10.659-.676-15.473-3.035-2.339-1.147-4.626-3.018-6.112-5.14-1.91-2.727-.962-4.333 2.461-6.517 1.915-1.222 4.253-1.878 6.484-2.482 4.004-1.086 8.058-2.001 12.116-2.872 2.495-.535 5.028-.914 7.56-1.252 1.744-.233 3.546-.112 5.261-.458 1.13-.229 2.325-.808 3.186-1.575 2.074-1.85 3.736-4.246 5.996-5.784 2.676-1.821 5.763-3.07 8.752-4.38 2.235-.98 4.598-1.664 7.006-2.378.965 1.671 2.406 1.116 3.661.995 1.267-.122 2.505-.578 3.77-.659 1.843-.118 3.701.019 5.548-.047 1.256-.046 2.519-.188 3.752-.425.467-.091.86-.571 1.287-.873-.409-.106-.812-.239-1.226-.311-.888-.155-1.794-.45-2.671-.384-3.74.283-7.471.686-11.208 1.012-.384.034-.788-.145-1.182-.226zm37.663 16.315c1.03-.135 2.075-.458 3.087-.374 3.933.326 7.853.804 11.781 1.183 2.884.279 5.792.364 8.656.774 2.819.403 5.662.894 8.375 1.732 3.894 1.202 7.522 3.044 8.963 7.26.526 1.538 1.105 1.35 2.261.918 2.814-1.053 3.286-5.52 1.837-8.041-1.82-3.165-5.092-4.136-8.249-5.044-6.25-1.797-12.592-3.019-19.171-2.952-4.047.041-8.097-.614-12.151-.725-4.973-.137-9.953-.084-14.929-.016-3.768.051-7.538.191-11.3.412-2.835.166-5.658.525-8.487.794-3.441.327-6.889.593-10.322.987-3.61.414-7.206.953-10.81 1.428-1.108.147-2.219.283-3.331.394-2.364.234-4.745.346-7.089.701-2.115.321-4.177.989-6.289 1.345-2.813.473-5.668.702-8.477 1.2-4.302.763-8.599 1.581-12.862 2.541-3.004.676-5.9 1.676-8.079 4.105-1.118 1.246-1.306 2.437.016 3.491 1.076.859 2.228 2.123 3.686.246.693-.892 1.715-1.754 2.763-2.101 2.6-.862 5.294-1.444 7.962-2.092 2.291-.558 4.579-1.171 6.903-1.545 3.185-.513 6.411-.768 9.604-1.241 2.227-.331 4.413-.961 6.644-1.241 2.435-.305 4.918-.231 7.349-.558 2.704-.364 5.354-1.163 8.062-1.461 3.109-.342 6.262-.256 9.384-.509 3.956-.32 7.896-.842 11.851-1.181 1.767-.151 3.56.015 5.33-.113 2.21-.161 4.409-.661 6.615-.681 3.335-.03 6.673.229 10.417.364zm-10.587-12.644c-2.404-.369-4.798-.941-7.214-1.061-4.093-.204-8.207-.289-12.298-.109-3.101.137-6.216.591-9.262 1.214-3.761.769-7.599 1.503-11.131 2.931-2.551 1.032-4.711 3.103-6.917 4.872-.471.377-.386 1.45-.556 2.203.602-.087 1.201-.213 1.806-.251.699-.043 1.415.077 2.102-.024 4.474-.652 8.929-1.45 13.415-1.992 3.601-.435 7.239-.554 10.857-.856 2.831-.236 5.656-.547 8.485-.8.629-.056 1.269.021 1.9-.015.986-.057 1.97-.141 2.951-.244 1.687-.176 3.368-.487 5.058-.541 2.869-.09 5.744-.011 8.616-.046.274-.003.545-.302.817-.465-.156-.24-.256-.592-.478-.703-2.638-1.324-5.295-2.612-8.151-4.113zm-15.268 38.545c-1.845.34-3.691.672-5.533 1.028-.337.065-.655.23-.982.349.227.313.391.801.692.908 1.555.557 3.116 1.269 4.73 1.457 3.471.406 6.823-.272 9.937-1.92.302-.16.504-.511.753-.773-.346-.282-.676-.784-1.04-.81-2.78-.2-5.568-.306-8.557-.239z" fill="#ffb61d"/><path d="m377.392 409.316c.208-1.362.527-2.72.601-4.091.144-2.643.202-5.294.167-7.941-.007-.478-.672-1.379-.956-1.346-1.653.171-1.168-.624-1.095-1.656.105-1.489-.416-3.027-.285-4.512.121-1.35.736-2.663 1.179-3.977.075-.22.391-.509.583-.501.202.012.533.322.558.534.318 2.668.534 5.348.894 8.007.322 2.382.899 4.731 1.15 7.118.126 1.207-.298 2.459-.337 3.699-.096 3.027.205 6.02-.293 9.096-.455 2.806-.53 5.682-1.319 8.46-.125.436.043 1.097.327 1.452.158.195.867.057 1.279-.078 7.173-2.337 14.337-4.707 21.51-7.048.383-.127.827-.082 1.242-.118-.358.22-.712.444-1.075.652-3.682 2.093-7.365 4.177-11.043 6.273-.273.155-.506.38-.758.571.407.168.849.535 1.213.465 2.263-.411 4.002.918 5.911 1.677.193.073.334.281.499.428-.255.127-.514.371-.761.359-2.411-.106-4.82-.338-7.231-.359-1.661-.016-3.359.078-4.982.408-4.195.857-8.369 1.827-12.527 2.851-1.329.326-2.559 1.048-3.881 1.424-.705.2-1.357.273-2.302-.017-1.623-.493-3.647.327-5.498.624-.113.017-.297.376-.26.421.236.285.53.75.794.742.829-.025 1.65-.249 2.48-.351.238-.032.495.098.743.151-.207.098-.419.184-.621.29-1.727.913-3.465 1.803-5.163 2.765-.235.135-.466.73-.36.942 2.022 4.128 4.099 8.227 6.151 12.339.15.298.196.653.291.979-.279-.106-.595-.159-.833-.322-4.068-2.831-7.331-6.266-8.382-11.331-.162-.78-.143-1.624-.458-2.329-.204-.453-.851-.979-1.318-.996-1.046-.041-2.114.163-3.154.363-1.646.318-3.261.877-4.918 1.036-2.183.212-4.398.07-6.592.192-2.827.163-5.645.526-8.472.636-1.819.074-3.652-.118-5.474-.248-3.373-.249-6.743-.543-10.114-.808-3.683-.294-7.376-.49-11.047-.893-1.779-.196-3.513-.792-5.276-1.163-3.935-.832-7.884-1.603-11.806-2.492-.768-.171-1.403-.938-2.17-1.114-.665-.146-1.613-.615-1.205 1.236.404 1.84-.53 3.977-.889 5.98-.029.159-.151.302-.229.449-.057-.245-.212-.518-.157-.739.634-2.537.036-4.931-.847-7.272-.397-1.057-.994-2.036-1.485-3.055-.078-.163-.069-.367-.101-.551.192.073.381.159.576.216 4.696 1.444 9.387 2.904 14.093 4.312.998.297 2.046.485 3.084.567.707.061 2.224 1.798 1.944-.759 1.142-.098 2.296-.347 3.423-.253 1.411.114 2.811.457 4.19.803.43.111.775.551 1.159.841-.316.208-.625.428-.952.616-.194.11-.417.167-.628.248.232.098.457.253.696.282 2.189.245 4.375.559 6.571.681 5.811.322 11.625.632 17.442.787 1.577.041 3.161-.612 4.758-.726 1.935-.134 3.888.012 5.83-.061 1.596-.057 3.202-.175 4.778-.424 1.93-.31 3.843-.747 5.747-1.199 4.281-1.012 8.559-2.04 12.824-3.117 2.654-.673 5.264-1.529 7.929-2.145 1.539-.355.904-1.061.367-1.628-3.472-3.675-6.952-7.341-10.516-10.923-.979-.987-1.389-1.578-.069-2.618 3.345-2.643 6.595-5.401 9.89-8.105.14-.118.378-.118.506-.241.682-.66 1.344-1.342 2.013-2.015-.866.07-1.731.155-2.598.208-2.432.143-4.865.38-7.298.38-2.396 0-3.494 1.064-3.967 4.05-.176 1.109-.584 2.194-.959 3.267-.205.588-.561 1.126-.848 1.685-.205-.661-.622-1.338-.577-1.983.25-3.544 1.259-8.708 5.896-10.291.174-.061.296-.257.458-.367.541-.363 2.057.718 1.661-.787-.284-1.081-1.257-2.268-2.246-2.786-.86-.444-2.457-.42-3.232.114-1.745 1.208-1.625-.567-1.692-1.04-.29-2.055-.37-4.14-.426-6.216-.006-.22.697-.718.977-.657 4.474.975 8.316-.542 11.873-3.026 1.032-.722 1.735-1.905 2.752-2.655 1.406-1.036.929-1.966.246-3.133-3.198-5.466-6.54-10.859-9.44-16.479-2.24-4.339-3.906-8.976-5.808-13.488-.101-.241-.028-.555-.036-.835.192.192.413.363.571.58 4.296 5.859 8.26 11.929 11.208 18.594 1.421 3.213 2.629 6.521 3.884 9.805.48 1.256.835 2.557 1.219 3.846.361 1.207-.919 4.348-2.099 5.103-2.787 1.782-5.553 3.606-8.407 5.274-1.117.652-1.255 1.399-.518 2.186 1.915 2.044 3.909 4.038 6.759 4.78.327.086.657.164.984.245 1.099.273 2.989.322 3.144.869.428 1.501.129 3.21.117 4.838-2.546.518-3.369 3.246-5.576 4.311-1.827.881-3.417 2.276-5.059 3.512-.799.603-.88 1.403-.104 2.145 2.962 2.843 5.929 5.678 8.902 8.505.155.151.379.224.571.334.027-.192.076-.387.076-.579.006-1.97-.046-3.944.015-5.914.09-2.868.232-5.735.422-8.595.033-.501.416-.974.636-1.46.085.563.135 1.13.264 1.681.123.518.329 1.019.601 1.631.006.416-.089.73-.184 1.04.175.017.351.029.527.045-.08-.395-.161-.791-.242-1.187zm9.772 14.888c.085-.322.171-.644.256-.967-.369-.073-.784-.281-1.094-.179-.317.106-.531.518-.79.799.474.184.95.368 1.628.347z" fill="#e7eaee"/><path d="m343.599 453.776c.669 3.5.668 3.304-2.904 3.328-2.829.021-5.684.441-8.471.979-3.919.751-6.093.6-8.064-2.806-.307-.526-.517-1.22-.485-1.819.207-3.851-1.903-7.713-5.473-9.377-3.462-1.616-7.08-1.693-10.722-.506-1.128.367-1.074.742-.363 1.648 3.565 4.548 6.982 9.21 10.564 13.741 1.212 1.534 2.76 2.803 4.15 4.197 1.502 1.506 3.544 1.02 5.27 1.114 2.568.139 4.714 1.554 5.124 4.16.104.657.538 1.265.82 1.893.432-.318.846-.661 1.298-.95 4.354-2.758 8.71-5.511 13.078-8.248.281-.175.659-.196.991-.285-.143.326-.241.685-.438.979-2.777 4.144-6.995 6.424-11.231 8.679-.411.217-.817.445-1.225.673.467.18.935.363 1.401.551 4.07 1.64 8.199 3.157 12.17 5.013 1.007.473 2.169 2.088 2.069 3.059-.11 1.057-1.419 2.337-2.52 2.888-3.384 1.689-6.966 1.991-10.735 1.134-3.905-.889-7.929-1.244-11.839-2.113-3.127-.697-6.164-1.811-9.237-2.749-1.204-.367-2.46-.64-3.577-1.187-.991-.489-2.445-.987-1.359-2.668.057-.085-.139-.44-.299-.55-1.682-1.171-3.4-2.293-5.063-3.488-.444-.322-.737-.848-1.1-1.28.485-.306.948-.657 1.46-.906.561-.273 1.241-.355 1.732-.71.566-.408 2.682-.208.907-1.819.768-.591 1.459-1.48 2.321-1.705 1.414-.367 2.939-.289 4.416-.416.803-.069 1.623-.094 2.4-.281.533-.131 1.006-.51 1.507-.775-.278-.29-.538-.596-.836-.861-4.974-4.425-9.235-9.426-12.982-14.957-3.972-5.866-9.854-8.027-16.816-7.318-1.081.106-2.167.629-3.202.514-.444-.045-1.069-1.227-1.059-1.888.01-.677.589-1.44 1.102-1.999 1.446-1.574 3.146-.518 4.679-.196 3.768.788 7.504 1.742 11.245 2.66 3.18.783 6.318 1.778 9.532 2.361 2.831.514 5.735.694 8.617.845 6.285.338 12.575.73 18.865.767 2.906.016 5.813-.763 8.727-1.13.328-.041.699.363 1.049.363.735-.004 1.47-.139 2.205-.22-1.074.354-2.16.673-3.22 1.064-1.903.702-3.833.755-5.815.453-.121-.016-.573.775-.507 1.122.566 2.949 1.217 5.881 1.843 9.022zm-32.573 15.296c-.255.204-.491.55-.768.591-1.73.233-1.564 1.024-.453 1.803.91.64 2.008 1.024 3.043 1.477 1.198.522 2.926 1.611 2.124 2.557-2 2.362.127 1.387.964 1.526.891.142 1.819.497 2.674.371 4.193-.628 8.252-1.607 11.196-5.078.64-.755 1.595-1.269.227-2.215-.211-.147.016-.828-.116-1.204-.296-.844-.475-1.961-1.099-2.402-.823-.579-2.028-.852-3.068-.848-3.155.016-6.31.216-9.464.367-1.974.098-3.956.212-4.527 2.704-.02.086-.346.102-.733.351zm30.537-18.355c-.136-.575-.191-1.191-.423-1.726-.642-1.488-.992-3.515-2.145-4.258-1.196-.767-3.207-.416-4.844-.306-2.734.188-5.456.551-8.178.877-1.315.159-2.413.612-1.91 2.284.816 2.717 1.641 5.429 2.576 8.105.139.396.922.853 1.363.812 2.364-.225 4.71-.641 7.072-.898 1.367-.151 2.753-.13 4.13-.199 2.23-.115 2.863-.939 2.373-2.994-.097-.408-.014-.857-.014-1.697zm-11.197 29.98c1.263.273 2.516.62 3.791.799 2.251.322 4.51.681 6.775.779 2.741.118 5.653.526 7.71-1.999.268-.326.305-1.358.104-1.476-2.273-1.338-4.514-2.827-6.964-3.736-2.419-.898-5.283-.474-7.387-2.48-.187-.18-1.009.114-1.402.383-2.116 1.452-4.199 2.953-6.267 4.471-.22.163-.452.734-.37.819 1.022 1.065 1.73 2.639 4.01 2.44z" fill="#00160a"/><path d="m171.266 475.7c7.098-1.934 13.147-.322 18.38 4.719 5.127 4.944 8.279 11.033 10.621 17.625 1.917 5.392 3.909 10.768 5.587 16.234 1.906 6.216 4.152 12.257 7.011 18.102 4.941 10.107 12.596 16.85 23.385 20.149 4.685 1.436 9.371 3.076 13.333 6.11 1.341 1.028 2.364 2.476 3.512 3.749.1.11.05.355.071.542-.193-.085-.418-.13-.572-.261-5.365-4.535-11.76-7.121-18.134-9.809-6.919-2.917-13.61-6.302-18.539-12.253-4.306-5.201-7.054-11.254-9.116-17.625-2.233-6.893-4.277-13.852-6.552-20.733-2.154-6.518-5.315-12.514-9.819-17.743-1.15-1.338-2.739-.987-4.152-.918-2.994.151-5.977.506-8.965.779-1.459.135-2.918.286-4.38.4-.24.016-.491-.114-.737-.175.228-.074.452-.167.686-.221 3.807-.86 7.615-1.717 11.426-2.561.587-.135 1.191-.18 1.78-.302.927-.192 1.847-.412 2.77-.62-.719-.722-1.36-1.55-2.174-2.141-2.357-1.709-5.101-2.231-7.936-2.105-3.184.143-6.356.567-9.54.681-3.899.139-7.806.167-11.706.086-3.248-.069-6.577.028-9.716-.657-5.192-1.13-10.36-2.549-15.356-4.352-7.192-2.594-13.804-6.387-19.792-11.192-1.018-.816-1.645-.975-3.006-.172-6.195 3.647-12.5287 7.061-18.8764 10.442-4.2716 2.272-8.6478 4.348-12.9857 6.498-.2374.118-.5537.073-.8335.106.1682-.192.3062-.428.509-.571 4.9898-3.516 9.7911-7.354 15.035-10.442 5.6201-3.304 11.6336-5.951 17.5256-8.778 2.2-1.056 4.538-1.823 6.826-2.688.329-.126.729-.061 1.097-.085-.246.236-.515.452-.734.709-1.082 1.281-2.177 2.55-3.182 3.887-.097.127.312.816.629 1.053 6.649 4.976 14.048 8.463 21.929 10.952 2.871.905 5.763 1.778 8.7 2.422 2.687.592 5.434 1.004 8.177 1.224 3.619.29 7.259.388 10.891.416 2.272.021 4.547-.241 6.923-.481z" fill="#00160a"/><path d="m264.2 431.342c-.272 2.696-.573 5.392-.805 8.093-.183 2.137-.278 4.282-.423 6.42-.012.183-.105.363-.161.542-.08-.142-.204-.281-.234-.436-.687-3.614-1.362-7.232-2.047-10.842-.032-.175-.139-.334-.211-.501-.063.179-.17.35-.184.534-.147 1.913-.314 3.826-.406 5.743-.164 3.406-.277 6.816-.42 10.226-.008.187-.088.367-.135.554-.089-.191-.226-.379-.26-.579-.449-2.602-.918-5.2-1.309-7.811-.299-2.003-.397-4.038-.808-6.008-.093-.445-1.24-1.11-1.685-.975-3.313 1.024-6.77 1.073-10.11 1.701-3.428.649-6.75-.057-10.101.273-.737.074-1.11-.053-.329-.709.103-.086.257-.176.279-.286.61-3.075 2.352-2.798 4.995-2.423 3.492.498 7.143-.134 10.727-.253.469-.016.944.204 1.414.192.848-.016 2.22.983 2.079-1.114-.051-.754.254-1.321 1.513-1.207 1.905.175 4.293-2.765 4.123-4.748-.188-2.182-.412-4.376-.842-6.518-.217-1.081-.698-2.382-2.377-1.313-.672.428-1.519.579-2.282.869-.471.175-.935.375-1.402.567.148-.686.069-1.599.485-2.019 1.429-1.444 3.339-1.644 5.279-1.567.185.008.367.086.551.135-.059-.196-.143-.383-.172-.579-.421-2.811-1.688-5.331-3.67-7.199-1.657-1.559-1.733-3.533-2.462-5.34-.067-.167.019-.391.034-.591.192.086.427.13.569.265 2.959 2.867 5.256 6.196 6.698 10.058 1.033 2.77 1.68 5.646 1.646 8.631-.001.07-.002.135 0 .204.031 1.175.063 2.35.094 3.524 1.081-.501 2.157-1.015 3.243-1.505 3.432-1.541 6.862-3.087 10.311-4.588.373-.164 1.086-.714 1.065.538-.014.901.255 2.003.806 2.68 1.264 1.562.644 3.043.446 4.711-.295 2.48-.134 5.017-.073 7.53.088 3.679.262 7.362.387 11.041.008.249-.093.502-.144.751-.085-.27-.197-.531-.252-.808-.449-2.26-.897-4.524-1.325-6.787-.387-2.04-.746-4.087-1.122-6.127-.404-2.19-.807-4.376-1.248-6.559-.017-.085-.436-.146-.652-.114-.192.029-.517.196-.519.31-.034 1.721.024 3.443-.035 5.164-.095 2.823-.252 5.641-.409 8.464-.015.269-.211.534-.323.799-.16-.22-.413-.42-.464-.661-.835-3.985-1.635-7.978-2.474-11.963-.061-.285-.359-.526-.547-.787-.083.273-.211.542-.243.82-.153 1.301-.356 2.602-.401 3.907-.17 4.903-.34 9.806-.395 14.713-.022 2.047.288 4.099.352 6.151.017.53-.326 1.072-.504 1.611.042-.465.149-.934.114-1.391-.1-1.26-.217-2.525-.404-3.773-.472-3.173-1.007-6.339-1.478-9.512-.35-2.353-.659-4.719-.947-7.081-.123-1.011-.145-2.031-.314-3.149.033-.571.301-1.056.266-1.513-.031-.412-.395-.8-.612-1.199.015.938.031 1.876.054 2.814 0 .004.124 0 .19 0zm-6.311 2.855c.6-.758 1.201-1.513 1.802-2.272-.889.351-1.777.702-2.666 1.049-.408.159-.837.273-1.22.477-.219.118-.366.371-.545.563.256.196.517.563.767.555.488-.013.97-.233 1.862-.372zm7.736-7.749c-.559.155-1.129.281-1.667.485-.085.033-.031.432-.041.661.544-.086 1.102-.127 1.624-.282.148-.045.194-.428.084-.864z" fill="#e7eaee"/><path d="m466.563 488.038c-1.833 0-3.461.021-5.09-.012-.342-.008-.68-.2-1.018-.306.293-.302.578-.856.884-.865 2.325-.073 4.658 0 6.987-.049 5.37-.11 10.741-.359 16.111-.363 3.522-.004 7.04.323 10.558.514 1.05.062 2.097.2 3.147.261 2.614.151 5.224.343 7.838.396 3.233.069 6.47-.004 9.703.037.692.008 1.376.293 2.072.383 2.285.29 4.565.588 6.857.812 3.119.31 6.246.534 9.365.832 2.516.241 5.02.587 7.537.799 3.847.323 7.797.127 11.53.943 7.187 1.57 14.911 2.308 20.049 8.598 1.706 2.088 3.571 4.511 4.039 7.028.737 3.981-.472 8.027-3.522 10.911-3.477 3.283-7.39 6.102-10.989 9.263-3.001 2.643-5.448 6.016-5.537 9.981-.147 6.302-.057 6.187 5.447 9.916 4.117 2.785 8.539 5.188 13.022 7.358 7.149 3.459 14.645 6.065 22.418 7.778 1.291.286 2.651.257 3.966.461.334.053.615.449.92.685-.338.168-.688.506-1.01.478-1.376-.115-2.752-.294-4.116-.531-2.822-.481-5.7-.807-8.445-1.582-3.249-.922-6.417-2.174-9.568-3.418-7.37-2.913-14.145-6.902-20.314-11.858-1.657-1.329-3.216-3.1-4.079-5.004-.632-1.391-.363-3.414.065-5.009.875-3.296 2.516-6.314 4.939-8.729 2.736-2.725 5.798-5.115 8.53-7.84 3.363-3.352 6.637-7.044 6.706-12.04.057-4.051-1.718-7.758-5.688-9.578-3.241-1.484-6.625-2.798-10.078-3.642-3.693-.901-7.532-1.207-11.319-1.701-3.559-.461-7.125-.873-10.692-1.219-3.412-.335-6.84-.518-10.248-.841-3.75-.359-7.484-.901-11.238-1.179-2.476-.183-4.976.005-7.463-.053-1.035-.024-2.057-.285-3.091-.383-3.029-.29-6.058-.628-9.092-.803-3.762-.217-7.532-.372-11.299-.408-6.197-.066-12.394-.021-18.794-.021z" fill="#00160a"/><path d="m43.0082 478.963c-6.5488 3.708 2.0293-3.055 10.2268-9.014 7.8208-5.686 15.7288-11.25 23.4649-17.046 4.5545-3.414 8.8664-7.154 13.2565-10.785 4.9112-4.058 9.8102-8.133 14.6696-12.257 2.531-2.149 5.003-4.368 7.433-6.632 3.053-2.839 6.064-5.727 9.046-8.643 7.155-6.999 14.348-13.958 21.398-21.063 4.632-4.666 8.908-9.692 13.582-14.309 6.427-6.355 13.319-12.156 21.764-15.735 3.867-1.64 7.778-3.172 11.683-4.719.254-.1.623.094.939.151-.258.144-.514.291-.774.432-6.159 3.315-12.418 6.458-18.439 10.008-3.648 2.154-7.075 4.756-10.332 7.477-3.842 3.214-7.57 6.608-11.03 10.226-5.899 6.175-11.454 12.677-17.34 18.86-4.128 4.34-8.557 8.391-12.874 12.543-1.782 1.717-3.575 3.426-5.448 5.041-4.39 3.786-8.808 7.534-13.256 11.25-4.5277 3.781-9.0538 7.566-13.6739 11.233-5.2402 4.157-10.557 8.219-15.89 12.257-4.636 3.512-9.3204 6.959-14.022 10.381-4.7361 3.447-9.5195 6.832-14.3839 10.344z" fill="#00160a"/><path d="m476.844 470.193c-.256 2.741-3.294 3.48-5.855 3.162-.965-.123-1.917-.323-2.887-.396-2.178-.171-4.364-.233-6.543-.437-1.193-.114-1.522.172-1.563 1.477-.122 3.765-.383 7.534-.81 11.278-.204 1.766-1.259 2.904-3.364 2.794-2.658-.134-5.358.18-7.996-.102-1.894-.204-3.95-.722-5.497-1.754-1.193-.795-2.268-2.557-2.398-3.981-.249-2.663.126-5.408.452-8.092.142-1.146.22-1.575-1.185-1.64-6.889-.322-13.799-.518-20.648-1.268-5.484-.6-10.936-.049-16.396-.319-.835-.04-1.706.135-2.5-.053-.652-.151-1.213-.693-1.813-1.064.73-.037 1.459-.102 2.192-.106 2.398-.017 4.796-.074 7.19.012 2.647.09 5.285.379 7.932.469 2.003.065 4.01-.135 6.009-.057 2.773.106 5.538.387 8.311.542 1.995.115 4.059.494 5.973.127 3.701-.702 5.822.595 5.847 4.189.008 1.326-.175 2.663-.399 3.973-.794 4.694 2.654 8.239 7.593 7.892 2.093-.147 4.206-.032 6.311-.02 1.865.012 3.176-1.224 3.18-3.365.004-2.321-.329-4.646-.346-6.967-.012-1.709.167-3.434.448-5.119.049-.294 1.038-.632 1.58-.612 3.221.135 6.441.347 9.662.567 1.327.09 2.647.363 3.97.376 1.718.02 2.06-1.318 2.215-2.66.183-1.591.387-3.194.387-4.793.004-1.574-.359-3.148-.351-4.723.017-3.047-.411-5.274-2.662-6.551-1.731-.983-3.469-1.023-5.408-.469-2.32.665-4.739.832-7.149.143-2.138-.616-3.16-2.276-2.802-4.605.273-1.782-.305-3.679-.297-5.523.012-1.909.265-3.817.436-5.722.089-.971.281-1.938.334-2.913.061-1.04-.057-2.088.028-3.124.232-2.904.546-5.8.798-8.704.289-3.329.521-6.665.827-9.994.232-2.586.594-5.163.79-7.753.215-2.868.215-5.756.5-8.615.151-1.509.815-2.961 1.055-4.47.277-1.73.334-3.496.501-5.242.024-.245.13-.485.199-.726.07.245.139.486.204.73.273 1.044.37 2.17.843 3.112 1.588 3.17.049 6.119-.387 9.17-.187 1.305-1.869 1.798-1.376 3.52.293 1.015-.57 2.317-.688 3.508-.461 4.65-.86 9.308-1.234 13.966-.187 2.341-.334 4.686-.407 7.036-.167 5.514-.232 11.033-.448 16.544-.057 1.533-.411 3.067-.762 4.568-.435 1.856 1.597 3.887 4.08 3.912 3.258.032 6.511 0 9.768.016.794.004 1.983-.204 2.301.212 1.026 1.338 1.82 2.884 2.54 4.426 1.01 2.169.257 4.368-.456 6.391-.566 1.607-.317 2.933.464 4.201.803 1.301.526 2.391-.293 3.626z" fill="#00160a"/><path d="m203.432 424c-.242.543-.992 1.244-.854 1.591.495 1.244 3.248 2.309 4.286 1.599.501-.338.543-1.444.667-2.223.088-.555-.035-1.142-.065-1.717.348 1.097 2.399-.816 2.309 1.419-.049 1.204.746 2.109 2.058.657.53-.587 1.377-.889 2.08-1.321-.067.73-.247 1.468-.177 2.182.153 1.562-.058 2.223-1.999 1.974-2.559-.331-5.224-.335-7.786-.016-3.438.424-6.825 1.28-10.223 2.002-.3.061-.522.486-.781.743.296.151.585.416.889.436 1.448.09 2.918-.008 4.347.192 3.957.559 7.896 1.252 11.848 1.852.686.102 1.437-.115 2.088.065.339.098.524.742.779 1.138-.359.126-.785.449-1.066.355-3.29-1.134-6.626-.849-9.791.147-4.925 1.545-9.734 3.458-14.582 5.249-4.354 1.607-8.692 3.255-13.139 4.887 2.606-1.224 5.327-2.419 8.02-3.676 2.842-1.329 5.66-2.712 8.482-4.078.191-.094.332-.29.497-.437-.567-.624-1.018-1.558-1.719-1.819-3.353-1.248-6.737-2.443-10.179-3.414-3.559-1.007-7.183-1.807-10.807-2.557-2.544-.531-5.139-.812-7.705-1.249-.322-.053-.6-.363-.899-.554.375-.139.775-.445 1.122-.392 2.967.449 5.912 1.073 8.89 1.42 2.696.318 5.442.22 8.135.554 2.704.339 5.363 1.02 8.054 1.481 1.181.204 2.391.257 3.591.322.086.004.333-.485.274-.673-.682-2.158-1.414-4.299-2.109-6.453-.042-.134.12-.473.199-.477.744-.037 1.49-.037 2.236-.02.889.02 2.174-.51 1.108 1.399-.41.734.354 2.145.687 3.214.02.065 1.061-.012 1.463-.273 1.827-1.191 3.587-2.484 5.392-3.708.246-.167.617-.237.918-.212 1.123.098 2.24.257 3.462.391zm-8.652 11.421c.56-.408 1.12-.816 1.681-1.223.148-.106.299-.208.449-.31-.314-.021-.729-.18-.921-.037-.522.387-.949.901-1.209 1.57z" fill="#e7eaee"/><path d="m273.973 466.42c-4.119-.55-7.94-1.468-11.652-2.847-3.778-1.407-6.178-4.054-7.044-7.974-.343-1.554-.358-3.185-.43-4.788-.169-3.749-.288-7.501-.406-11.25-.009-.277.152-.555.234-.832.096.232.229.457.282.697.376 1.705.88 3.398 1.068 5.124.301 2.765.271 5.571.612 8.333.226 1.835.543 3.781 1.365 5.4 1.848 3.634 5.471 4.732 9.135 5.246 11.13 1.554 20.991 5.832 29.967 12.64 3.777 2.867 8.274 4.829 12.574 6.934 4.278 2.092 8.695 3.912 13.095 5.739 7.962 3.312 15.44 7.562 22.567 12.33 6.135 4.104 11.904 8.803 16.48 14.729 1.852 2.399 3.596 4.887 5.298 7.395.218.318-.111 1.012-.186 1.534-.336-.253-.753-.445-.996-.771-2.323-3.104-4.435-6.392-6.957-9.328-6.369-7.412-14.263-12.918-22.924-17.283-11.278-5.686-22.712-11.062-33.96-16.805-4.732-2.414-9.203-5.359-13.717-8.182-4.327-2.708-8.893-4.76-13.91-5.759-.111-.021-.195-.184-.495-.282z" fill="#00160a"/><path d="m221.754 336.612c2.316-2.493 5.238-3.636 8.235-4.54 2.749-.83 7.307 1.183 8.302 3.908.49 1.34.016 3.077-.176 4.615-.336 2.695-.798 5.373-1.192 8.061-.685 4.678-1.41 9.351-2.008 14.04-.19 1.493.058 3.038-.048 4.549-.209 2.973-.6 5.933-.771 8.906-.127 2.191-.01 4.397-.055 6.592-.004.163-.478.277-.663.481-.216.232-.504.538-.506.812-.032 4.507-.108 9.018.012 13.525.063 2.358 2.35 3.373 5.384 3.255 3.472-.135 6.999-.049 10.431.441 2.029.293 2.186 2.757 2.366 4.307.36 3.104.104 6.285.108 9.43.002 2.093.319 4.275-1.247 5.996-.542.596-1.315 1.11-2.078 1.338-1.045.31-2.179.343-3.28.428-.23.017-.483-.253-.725-.387.288-.188.575-.53.865-.535 2.999-.04 4.94-1.7 5.218-4.78.251-2.765.523-5.564.344-8.317-.102-1.578-.796-3.312-1.734-4.601-1.65-2.268-5.714-2.961-8.488-1.823-2.927 1.195-6.698.086-8.339-2.537-.32-.514-.506-1.232-.458-1.827.2-2.476.557-4.94.771-7.416.197-2.272.351-4.548.404-6.828.068-2.969-.053-5.939.054-8.904.037-1.052.682-2.076.74-3.133.121-2.212-.069-4.445.068-6.657.125-2.026.521-4.035.78-6.053.281-2.176.528-4.356.811-6.532.633-4.857 1.308-9.708 1.904-14.569.271-2.203-2.33-4.543-4.928-4.848-2.693-.316-4.941.745-6.738 2.381-2.876 2.617-5.456 5.566-8.094 8.437-1.283 1.396-2.35 2.989-3.623 4.395-4.479 4.951-9.003 9.861-13.519 14.778-.199.217-.474.364-.714.543.069-.28.11-.571.211-.839 1.94-5.152 6.167-8.553 9.664-12.487 4.09-4.602 8.397-9.011 12.712-13.605z" fill="#00160a"/><path d="m434.703 479.779c-2.659-.441-5.273-.796-7.756-1.579-2.838-.893-4.996.204-7.065 1.828-.146.114.11 1.231.395 1.346 3.319 1.329 6.641 2.663 10.037 3.773 2.211.721 4.426 1.35 6.93.991 1.258-.18 2.724 1.105 4.096 1.717.375.167.769.289 1.152.436-.452.053-.904.147-1.356.151-1.926.017-3.856-.102-5.765.037-1.8.126-3.575.526-5.367.771-.276.037-.586-.135-.879-.212.244-.061.489-.127.737-.18.411-.089.822-.167 1.234-.253-.387-.053-.79-.044-1.153-.167-7.5-2.529-15.004-5.054-22.491-7.615-3.978-1.362-7.932-2.794-11.891-4.218-.363-.13-.661-.444-.99-.677.472-.016.972-.151 1.41-.04 3.515.897 7.016 1.831 10.518 2.773 2.463.665 4.914 1.35 7.365 2.04.778.22 1.609-1.196 1.393-2.431-.334-1.922-.7-3.835-1.006-5.76-.016-.085.44-.371.668-.359 2.186.106 4.369.237 6.547.4.627.045 1.881-.428 1.124 1.093.346.049.696.09 1.042.147 2.386.379 4.434 1.35 6.091 3.19.514.567 1.434 1.215 2.069 1.125 1.083-.146 1.592-.921 1.299-2.308-.159-.739-.745-2.501 1.352-2.472 1.176.016 1.148.408.924 1.37-.135.576.293 1.277.468 1.922.607-.327 1.222-.641 1.816-.987.326-.188.623-.429.932-.645-.036.363-.146.734-.105 1.085.325 2.802-1.491 3.386-3.775 3.708zm-17.813-4.997c.277 1.097.557 2.19.834 3.288.929-.4 1.857-.796 2.777-1.199.513-.225 1.063-.408 1.507-.731.277-.199.57-.901.553-.913-1.209-.787-2.386-1.709-3.717-2.178-.44-.159-1.291.852-1.954 1.733z" fill="#e7eaee"/><path d="m174.116 445.21c-2.813 1.224-5.71 2.493-8.647 3.663-3.729 1.485-7.512 2.835-11.219 4.373-.743.306-1.285 1.158-1.848 1.819-.242.281-.305.718-.449 1.085-.043-.457-.156-.922-.117-1.371.123-1.415-.314-1.468-1.693-1.26-1.924.29-3.967-.285-5.92-.098-2.633.253-5.251.787-7.834 1.383-1.39.322-2.862.783-3.999 1.599-2.342 1.68-2.117 3.916.253 4.862 2.155.865 4.335 1.664 6.526 2.431.199.069.816-.343.806-.506-.085-1.46-.357-2.912-.389-4.368-.02-.922.114-1.93.498-2.745.188-.4 1.105-.457 1.692-.669.032.538.156 1.085.082 1.603-.311 2.198-.688 4.38-1.016 6.575-.036.236.03.534.154.742.452.747 3.051 1.028 4.011.461 1.237-.73.643-1.835.285-2.598-.997-2.121-.548-4.046.444-5.951.18-.347.623-.559.945-.832.085.363.226.722.247 1.089.153 2.614-.013 5.298.549 7.823.254 1.138 1.916 1.986 3.026 2.855.085.065 1.213-.722 1.257-1.175.161-1.615.057-3.255.07-4.886.002-.253.091-.502.141-.755.086.265.204.527.255.8.708 3.797 5.452 7.664 9.502 7.803.492.02.972.363 1.457.558-.452.054-.904.119-1.357.164-3.781.379-7.472-.355-11.208-.751-6.581-.701-12.602-2.667-18.053-6.461-1.66-1.154-3.102-2.223-2.747-4.564.352-2.321 1.907-3.761 3.842-4.381 2.108-.677 4.432-.701 6.667-.966 1.522-.18 3.062-.221 4.58-.429 2.622-.359 5.26-.677 7.839-1.244 2.877-.632 5.694-1.538 8.542-2.308 3.684-.996 7.372-1.975 11.06-2.958.552-.146 1.109-.273 1.766-.412z" fill="#00160a"/><path d="m466.054 419.615c-.986-2.043-2.158-3.915-2.667-5.951-.509-2.023-.359-4.213-.477-6.33-.008-.135.151-.277.236-.42.188.265.432.502.558.791 1.641 3.802 3.38 7.566 4.858 11.429 1.246 3.251 2.386 6.567 3.2 9.944.814 3.374 1.356 6.845 1.665 10.308.273 3.055.017 6.155.078 9.234.02.894-.204 1.228-1.1 1.085-1.404-.228-2.805-.506-4.222-.587-.81-.045-1.641.261-2.463.404-.383.065-.778.216-1.144.159-1.531-.229-3.954-3.304-4.153-4.813-.469-3.549.162-6.367 4.043-7.607.757-.241 1.368-.983 1.999-1.55 1.25-1.13.203-2.019-.627-2.248-1.124-.306-2.407-.094-3.612.012-.439.037-.851.4-1.274.612.036-.775-.061-1.591.155-2.308.114-.368.773-.788 1.201-.808 1.987-.082 4.01-.257 5.957.033 1.644.244 1.339-.82 1.152-1.436-1.014-3.304-2.162-6.571-3.363-9.953zm4.173 22.944c0-1.627-.049-3.259.012-4.882.057-1.412-.545-1.554-1.555-.898-2.411 1.562-4.813 3.137-7.17 4.777-1.059.738-1.067 1.701.032 2.418 2.447 1.595 4.935 3.125 7.435 4.638.159.094.786-.175.802-.318.192-1.77.306-3.549.444-5.735zm2.158 2.855c-.024-.697-.038-1.399-.104-2.096 0-.021-.498-.008-.763-.013.208.771.417 1.542.867 2.109z" fill="#e7eaee"/><path d="m419.841 417.576c2.548-2.961 5.35-5.592 7.349-8.737 2.361-3.72 6.087-6.057 8.624-9.443 3.664-4.882 8.359-8.688 12.443-13.117 1.909-2.068 4.23-3.577 7.015-4.177 2.349-.51 4.328.445 6.124 1.868.093.074.081.278.118.424-.183-.02-.383 0-.546-.065-4.181-1.668-7.996-.542-10.965 2.35-4.287 4.176-8.123 8.822-12.154 13.264-1.437 1.583-2.878 3.157-4.32 4.732-4.316 4.735-8.648 9.454-12.947 14.206-3.522 3.896-7.004 7.832-10.513 11.743-4.935 5.499-9.935 10.94-14.803 16.499-3.377 3.859-3.402 8.639-3.176 13.399.062 1.306.398 2.595.595 3.892.018.118-.067.252-.104.375-.177-.135-.393-.237-.525-.404-3.171-4.046-3.453-9.977-.349-14.076 3.048-4.026 6.344-7.868 9.62-11.715 4.413-5.192 8.892-10.323 13.379-15.45 1.629-1.864 3.351-3.647 5.135-5.568z" fill="#00160a"/><path d="m240.483 369.039c-1.155-2.517-2.207-4.932-3.265-7.345-.076-.173-.293-.332-.283-.487.072-1.096.185-2.189.285-3.283.509.814 1.017 1.63 1.528 2.443 3.731 5.932 5.837 12.545 7.675 19.21.812 2.949.805 6.131 1.066 9.214.22 2.586.345 5.181.409 7.775.069 2.737-1.592 3.736-4.193 2.627-.75-.319-1.505-.633-2.281-.873-.612-.192-.867.175-1.358.909-.173.261-1.159.331-1.451.09-1.545-1.26-3.304-2.443-4.349-4.067-.651-1.011-.186-2.757-.19-4.172-.003-.955-.144-1.62 1.272-2.187 2.321-.925 4.327-2.647 6.424-4.099.049-.032-.347-1.117-.633-1.166-1.657-.302-3.343-.445-5.02-.629-.273-.028-.552-.004-.827-.004.003-.677.005-1.358.009-2.035.255.069.511.204.767.204 2.034.016 4.069.069 6.1-.008 1.66-.065 2.121-1.721 1.307-3.842-1.035-2.697-1.933-5.446-2.992-8.275zm-3.563 24.982c2.109 1.297 4.217 2.598 6.329 3.891.416.257.846.489 1.269.734.046-.457.134-.914.132-1.366-.02-3.777-.053-7.55-.114-11.323 0-.057-.487-.229-.614-.143-2.509 1.656-5.03 3.3-7.478 5.041-1.53 1.089-1.418 1.791.476 3.166zm8.551.407c.241.478.482.955.723 1.428.166-.139.471-.273.474-.416.016-.649-.054-1.297-.093-1.946-.368.176-.736.351-1.104.934z" fill="#e7eaee"/><path d="m336.269 357.924c-.471.812-.821 1.615-1.434 1.995-3.28 2.039-6.667 3.905-9.923 5.979-1.001.638-1.708 1.74-2.546 2.633-.089.095-.147.219-.22.33.319.003.707.126.947-.011 1.706-.972 3.377-2.005 5.068-3.004 2.288-1.352 4.577-2.703 6.882-4.024.362-.208.816-.256 1.226-.378-.204.458-.282 1.123-.634 1.341-2.203 1.364-4.475 2.615-6.71 3.929-3.002 1.764-5.954 3.621-9 5.305-2.366 1.31-3.245 3.231-3.232 5.858.013 2.594-.408 5.192-.332 7.778.096 3.292.59 6.567.744 9.854.132 2.827.065 5.666-.005 8.497-.014.55-.446 1.093-.686 1.639-.711-.652-1.686-1.187-2.047-1.998-.285-.637.304-1.615.305-2.443.023-17.323.02-34.648.005-51.972 0-.471-.341-.977-.246-1.407.159-.724.54-1.399.827-2.095.217.696.576 1.383.628 2.092.198 2.703.248 5.417.445 8.12.215 2.949.605 5.886.767 8.836.07 1.292-.25 2.602-.363 3.907-.028.319.063.648.099.973.328-.129.687-.207.978-.394 4.233-2.727 8.438-5.496 12.69-8.192 1.876-1.19 3.842-2.239 5.767-3.148z" fill="#e7eaee"/><path d="m515.423 493.239c-6.059.102-12.118.102-18.172.102-3.412 0-6.832-.094-10.24.024-5.855.196-11.706.661-17.561.739-3.14.041-6.279-.588-9.426-.734-3.005-.139-5.969-.151-8.97-.763-4.21-.865-8.534-1.138-12.797-1.754-.908-.131-1.763-.641-2.639-1.081 1.702.037 3.408.204 5.114.302 2.948.159 5.896.285 8.844.412 3.489.147 6.979.265 10.468.412 2.879.122 5.757.277 8.64.404 3.42.146 6.844.265 10.265.412 2.948.126 5.895.305 8.843.391 2.052.065 4.117-.073 6.165.033 4.181.212 8.355.571 12.536.783 2.973.147 5.953.151 8.93.318z" fill="#00160a"/><path d="m198.342 474.476c-3.784-1.207-7.422-2.508-11.164-3.349-2.466-.55-5.081-.432-7.628-.628-3.417-.265-6.832-.542-10.248-.82-.116-.008-.226-.106-.339-.159.144-.081.284-.22.434-.232 1.889-.151 3.78-.273 5.67-.42 2.716-.208 5.428-.514 8.148-.616 1.335-.049 2.72.11 4.019.432 5.837 1.448 11.396 3.626 16.313 7.138 7.972 5.698 13.325 13.204 15.939 22.781 1.421 5.204 3.241 10.356 6.376 14.884.279.403.414.913.58 1.386.092.265.11.559.161.836-.225-.199-.503-.367-.668-.611-5.56-8.272-9.952-17.091-13.105-26.582-1.936-5.833-6.324-9.794-11.64-12.702-.877-.481-1.829-.828-2.848-1.338z" fill="#00160a"/><path d="m438.062 430.119c.061-3.394.126-6.584.159-9.773 0-.041-.578-.192-.64-.106-1.355 1.802-2.837 3.54-3.969 5.482-3.734 6.395-7.35 12.864-12.028 18.648-.424.522-.985.938-1.421 1.456-.314.376-.529.836-.79 1.261.529.191 1.051.473 1.596.554 1.779.274 3.563.506 5.35.686 1.609.159 3.225.216 4.837.338.399.033.819.074 1.177.229 3.054 1.337 5.24-.151 5.334-3.578.073-2.843.248-5.686.407-8.529.02-.326.244-.636.371-.958.215.277.59.538.614.828.127 1.419.184 2.847.22 4.271.029 1.358-.012 2.716.004 4.074.057 4.075-2.809 6.143-6.368 5.564-2.54-.416-5.163-.298-7.74-.547-1.384-.134-2.74-.587-4.12-.82-.68-.114-1.438.107-2.073-.097-1.246-.4-1.559-1.848-.773-2.97 4.079-5.849 8.212-11.661 12.198-17.572 1.621-2.406 2.911-5.033 4.341-7.566.692-1.232 1.372-2.304 3.09-2.337 1.844-.037 2.553 1.044 2.614 2.488.073 1.836-.22 3.687-.379 5.527-.163 1.852-.277 3.708-.566 5.539-.114.738-.623 1.419-.981 2.113-.045.09-.273.085-.419.126-.013-.265-.041-.53-.045-.795-.004-1.11 0-2.219 0-3.536z" fill="#00160a"/><path d="m144.087 538.208c.448-2.284.968-4.348 1.327-6.444.573-3.357 1.003-6.743 1.566-10.099.319-1.909.885-3.782 1.143-5.699.183-1.358.036-2.761.036-4.144 0-4.303.138-8.614-.033-12.909-.249-6.249-4.297-11.197-10.232-13.371-2.638-.967-5.103-2.439-7.575-3.81-.628-.35-1.153-1.129-1.414-1.827-.265-.714-.147-1.566-.197-2.362.432.498.859.996 1.296 1.485 2.206 2.48 5.189 3.753 8.153 4.887 5.183 1.986 9.222 5.049 10.561 10.666.65 2.733.833 5.588 1.043 8.402.248 3.337.499 6.69.375 10.022-.117 3.157-.67 6.306-1.119 9.443-.527 3.679-1.024 7.37-1.773 11.004-.474 2.301-1.38 4.512-2.107 6.755-.096.298-.282.563-.425.844-.209-.314-.536-.603-.598-.942-.101-.546-.027-1.13-.027-1.901z" fill="#00160a"/><path d="m208.013 398.711c1.79-.689 3.742-.938 4.126-3.12.161-.922.301-1.852.337-2.782.056-1.423-.044-2.859.041-4.279.04-.681.352-1.342.541-2.011.336.58 1.063 1.261.944 1.722-.845 3.275.424 6.738-1.049 9.981-.599 1.317-1.163 1.831-2.648 1.758-3.024-.147-6.082.175-9.086-.11-2.736-.257-5.487-.861-8.099-1.714-1.226-.403-.929-1.851-.213-2.863 2.721-3.834 5.595-7.57 8.162-11.506 2.84-4.357 5.38-8.909 8.119-13.334.481-.778 1.193-1.546 1.985-1.971 2.019-1.085 3.435-.226 3.331 2.024-.191 4.148-.505 8.296-.818 12.44-.027.355-.424.677-.649 1.016.003-.367.024-.734.008-1.101-.11-2.464-.239-4.928-.34-7.391-.065-1.591-.098-3.182-.133-4.777-.007-.31.041-.626.063-.941-.361.111-.825.117-1.063.352-.502.5-.908 1.099-1.312 1.687-2.063 3.002-4.571 5.812-6.037 9.083-1.426 3.19-3.331 5.984-5.192 8.847-1.267 1.95-2.774 3.741-4.134 5.633-.299.416-.43.951-.638 1.432.403.004.814-.041 1.208.02 1.322.208 2.634.478 3.957.677 2.793.425 5.589.82 8.589 1.228z" fill="#00160a"/><path d="m515.423 493.443c3.624.037 7.26.379 10.875.253 4.32-.151 8.551.375 12.818.816 4.584.477 8.668 2.027 12.406 4.621 2.972 2.056 5.806 9.463 4.968 12.82-.717 2.888-5.66 7.011-8.995 7.48-.224.033-.48-.122-.72-.191.232-.098.488-.159.692-.294 2.072-1.383 4.735-2.353 6.083-4.254 3.049-4.303 2.007-8.998-2.736-12.351-4.89-3.455-10.603-4.911-16.36-6.143-2.618-.559-5.22-1.248-7.867-1.595-3.705-.489-7.443-.718-11.164-1.162z" fill="#00160a"/><path d="m280.023 326.266c-1.172 3.22-1.379 1.947-6.05 3.911-4.445 1.869-9.003 3.485-13.371 5.515-5.351 2.487-10.558 5.285-15.821 7.96-1.122.57-2.218 1.191-3.331 1.778-.553.292-1.323.931-1.634.759-.562-.311.141-3.09.745-3.356 7.393-3.264 14.794-6.508 22.175-9.795 7.899-3.517 8.494-3.552 16.384-7.088.342-.153.703-.266 1.055-.398-.017.204-.034.408-.152.714z" fill="#00160a"/><path d="m540.566 521.077c-2.504.816-5.098 1.661-7.712 2.444-4.083 1.223-8.159 2.467-12.276 3.581-3.465.938-7.003 1.619-10.464 2.561-5.065 1.383-10.093 2.896-15.138 4.349-.086.024-.192-.049-.289-.054-.684-.016-1.368-.032-2.048-.044.651-.388 1.323-.747 1.958-1.159 4.491-2.916 9.471-4.633 14.609-5.963 3.591-.93 7.166-1.966 10.798-2.713 3.306-.677 6.69-.966 10.021-1.533 3.212-.547 6.396-1.24 9.605-1.828.248-.044.553.233.936.359z" fill="#00160a"/><path d="m139.507 449.595c-.385-.033-.665-.175-.953-.302-.172-.073-.359-.114-.539-.171.147-.082.285-.196.442-.233 4.569-1.097 9.142-2.17 13.708-3.275 3.37-.812 6.722-1.701 10.098-2.484 3.085-.718 6.204-1.285 9.285-2.011 2.79-.661 5.539-1.497 8.327-2.166 1.826-.44 3.691-.722 5.532-1.101.296-.057.549-.347.844-.396.832-.138 1.675-.212 2.514-.31-.653.38-1.265.873-1.964 1.114-6.187 2.104-12.361 4.258-18.6 6.196-3.226 1.003-6.561 1.692-9.878 2.361-3.319.673-6.668 1.216-10.021 1.697-2.886.412-5.795.661-8.795 1.081z" fill="#00160a"/><path d="m517.106 546.011c4.055 2.027 8.009 3.948 11.962 5.869 3.164 1.538 6.328 3.075 9.491 4.613.281.139.558.286.835.433-.367.036-.79.216-1.091.093-4.182-1.709-8.368-3.393-12.5-5.208-7.008-3.076-13.995-6.2-20.953-9.382-4.283-1.962-8.489-4.083-12.748-6.089-.957-.457-1.682-.755-.452-1.787.663-.555 1.038-.746 1.889-.322 7.822 3.895 15.643 7.786 23.567 11.78z" fill="#00160a"/><path d="m164.853 406.053c.954-7.86 4.74-14.072 10.155-19.276 5.226-5.026 10.739-9.749 16.138-14.59.211-.188.55-.233.829-.347-.135.24-.23.518-.411.714-4.358 4.788-8.77 9.528-13.075 14.361-3.382 3.794-6.804 7.579-9.88 11.617-1.78 2.337-2.227 5.249-1.779 8.313.305 2.084.062 4.25.051 6.379-.001.184-.104.363-.159.543-.096-.209-.231-.404-.282-.625-.537-2.292-1.06-4.588-1.587-7.089z" fill="#00160a"/><path d="m180.732 421.553c-.962-.135-1.716-.351-2.478-.388-1.355-.065-2.739.135-4.061-.077-.818-.131-1.545-.824-2.313-1.265.633-.102 1.269-.31 1.899-.289 3.835.102 7.668.298 11.504.375 3.143.065 6.29-.041 9.433.029 3.405.073 6.808.293 10.213.379 2.397.065 4.796-.016 7.194.024 2.357.037 4.271 2.615 3.785 4.944-.255 1.224-.435 2.468-.557 3.712-.333 3.385 1.048 5.796 4.184 7.158.228.102.459.196.689.29-.244.065-.486.183-.732.196-3.311.155-4.558-1.069-4.558-4.454v-6.935c0-2.549-.953-3.299-3.489-3.32-6.345-.049-12.69-.244-19.035-.375-1.244-.024-2.489-.004-3.734-.004-.067 0-.153.028-.2-.004-2.516-1.636-5.028.893-7.744.004z" fill="#00160a"/><path d="m498.627 415.537c-5.415-2.158-10.68-4.357-16.059-6.212-2.589-.894-5.407-1.122-8.11-1.693-2.342-.494-4.654-1.13-7.008-1.542-1.14-.2-2.357-.143-3.514-.008-1.266.147-.952-.653-1.058-1.346-.171-1.101.378-1.106 1.246-1.155 4.271-.248 8.367.857 12.439 1.767 6.03 1.346 11.82 3.556 17.292 6.452 3.074 1.628 5.957 3.618 8.917 5.466.151.094.195.367.285.563-.228-.061-.485-.073-.688-.184-1.222-.656-2.427-1.333-3.742-2.108z" fill="#00160a"/><path d="m295.145 445.21c-5.705 2.586-11.21 5.16-16.706 7.754-1.985.938-3.919 1.987-5.939 2.839-.577.245-1.37-.028-2.063-.061.365-.518.615-1.248 1.114-1.525 4.296-2.366 8.599-4.728 12.977-6.939 2.735-1.378 5.551-2.643 8.433-3.667 1.376-.493 2.989-.326 4.497-.42.171-.008.358.245.537.376-.17.138-.326.306-.513.416-.706.42-1.421.82-2.337 1.227z" fill="#00160a"/><path d="m480.916 456.937c2.227 3.108 4.263 6.135 5.301 9.757.896 3.112 1.495 6.204 1.12 9.446-.11.947-.102 1.909-.151 2.864-.358-.963-.737-1.917-1.079-2.888-2.174-6.155-4.344-12.31-6.514-18.469-.021-.061.016-.143-.004-.2-.261-.759-.526-1.513-.79-2.264.672.551 1.343 1.101 2.117 1.754z" fill="#e7eaee"/><path d="m231.628 426.855c-.987-2.847.683-5.73 3.641-6.526 2.752-.742 5.226.216 7.694 1.228.152.061.29.159.434.241-.248.053-.496.155-.744.159-2.191.012-4.383-.021-6.574.016-1.583.025-2.511.865-2.396 2.476.201 2.81.757 5.621.696 8.419-.03 1.391-1.027 2.798-1.709 4.136-.916 1.794-2.429 1.305-3.987 1.019-1.841-.334-3.735-.383-5.606-.562-.253-.025-.503-.094-.754-.143.262-.086.518-.22.787-.257 2.145-.286 4.286-.641 6.441-.8 2.344-.167 3.932-3.271 2.926-5.616-.477-1.11-.578-2.382-.849-3.79z" fill="#00160a"/><path d="m328.228 402.484c-2.02 1.346-3.844 2.79-5.897 3.736-.963.445-2.371-.081-3.576-.167.038-.24-.012-.599.128-.701 1.906-1.412 3.774-2.892 5.779-4.149 2.772-1.737 5.65-3.307 8.493-4.927.293-.167.66-.204.993-.302-.086.416-.028.979-.279 1.22-1.812 1.766-3.686 3.467-5.641 5.29z" fill="#e7eaee"/><path d="m246.998 424.306c-1.492 1.974-.782 4.14-.956 6.18-.039.461-.077.926-.079 1.391-.006 1.811-.871 1.341-1.809.689-2.782-1.934-5.507-3.957-8.368-5.764-1.461-.925-.67-2.174-.901-3.275.254.074.559.082.755.229 1.852 1.419 3.641 2.924 5.555 4.254.543.375 1.436.245 2.168.346.082-.783.468-1.7.19-2.32-.861-1.922-.111-2.28 1.604-2.04.645.094 1.295.143 1.841.31z" fill="#e7eaee"/><path d="m472.569 474.68c-.171.453-.648.783-.68 1.155-.204 2.169-.301 4.352-.444 6.526-.028.387-.106.771-.163 1.15-.326-.163-.672-.294-.973-.494-2.602-1.717-5.13-3.569-7.822-5.127-1.478-.856-1.176-2.039-1.217-3.255.224.004.517-.085.664.025 1.763 1.313 3.457 2.725 5.26 3.973.896.62 2.232-.164 2.199-1.208-.024-.905-.204-1.807-.318-2.712 1.132-.045 2.26-.09 3.494-.033z" fill="#e7eaee"/><path d="m161.29 481.206c2.827-.51 5.543-.987 8.278-1.305 3.58-.416 7.177-.693 10.763-1.052 1.114-.115 2.216-.384 3.331-.441.501-.028 1.02.282 1.531.437-.388.346-.738.934-1.169.999-3.12.477-6.257.852-9.389 1.264-1.179.151-2.359.298-3.534.473-3.448.514-6.889 1.073-10.344 1.53-.504.065-1.068-.33-1.605-.51.504-.363 1.001-.734 1.514-1.081.152-.106.347-.142.624-.314z" fill="#00160a"/><path d="m208.42 381.988c-.383-.722-.661-1.415-1.171-1.717-.743-.445-.764-.857-.34-1.448.306-.428.663-.816.998-1.224.171.473.236 1.032.535 1.395.637.779 1.36 2.019 2.112 2.068 1.735.11 1.334 1.497 1.046 1.889-.716.966-.38 1.823-.385 2.798-.007 1.354-.524 2.7-.588 4.058-.066 1.432.151 2.876.232 4.312.023.407.167.942-.029 1.195-.489.632-1.142 1.138-1.729 1.696-.091-.526-.259-1.048-.262-1.574-.022-4.063-.002-8.129-.03-12.192-.002-.351-.254-.701-.389-1.256z" fill="#e7eaee"/><path d="m436.433 444.395c-.139.758-.151 1.391-.44 1.847-.346.547-.924.947-1.401 1.408-.065-.514-.187-1.028-.187-1.546-.024-4.165.053-8.333-.098-12.49-.032-.905-.895-1.762-1.302-2.671-.151-.335-.233-.828-.094-1.13.436-.955.961-2.558 1.515-.012.089.391.529.791.908 1.027 2.117 1.326 1.555 3.17 1.225 5.128-.456 2.716-1.751 5.473-.126 8.439z" fill="#e7eaee"/><path d="m370.064 438.684c2.445-1.293 4.85-2.374 6.863-3.96 1.162-.914 1.644-2.664 2.52-3.981.53-.8 1.227-1.485 1.849-2.219.585.95.093 1.762-.203 2.692-1.328 4.16-4.669 6.179-8.263 7.84-2.323 1.076-4.777 1.904-7.24 2.61-.988.286-2.158-.057-3.243-.135-.124-.012-.238-.171-.357-.265.196-.179.363-.448.593-.526 1.731-.571 3.467-1.122 5.215-1.635.67-.2 1.374-.282 2.266-.421z" fill="#00160a"/><path d="m278.146 342.016c.306-1.46.848-2.899 1.085-4.387.284-1.777.27-3.6.47-5.392.045-.398.448-.754.686-1.13.169.405.447.801.481 1.217.042.535-.676 1.296.669 1.278.182-.003.748 1.738.512 2.469-.744 2.302-1.194 4.476-.147 6.839.308.695-.084 1.721-.23 2.583-.037.218-.343.511-.557.541-.165.022-.508-.29-.548-.497-.203-1.036-.321-2.088-.491-3.131-.088-.542-.222-1.076-.335-1.613-.498.407-.996.815-1.595 1.223z" fill="#ffb61d"/><path d="m362.328 323.661c.135 1.12.306 2.031.392 2.951.045.474-.06.962-.097 1.444-.334-.41-.881-.778-.968-1.235-.514-2.694-.934-5.407-1.357-8.117-.174-1.112-.242-2.241-.42-3.353-.524-3.279-1.083-6.552-1.613-9.83-.028-.173.08-.368.125-.553.343.473.889.904.995 1.425.809 3.962 1.562 7.937 2.269 11.919.302 1.701.453 3.429.674 5.349z" fill="#e7eaee"/><path d="m315.911 215.571c1.228-4.909 2.512-9.591 5.571-13.526.154-.199.377-.344.568-.514-.011.298.05.621-.043.89-1.006 2.898-2.032 5.789-3.06 8.679-.735 2.065-1.471 4.128-2.231 6.183-.147.397-.411.75-.621 1.124-.143-.415-.377-.824-.403-1.245-.028-.456.137-.924.219-1.591z" fill="#00160a"/><path d="m278.451 368.937c0-.339-.044-.495.007-.607.464-1.025.943-2.044 1.418-3.064.204.998.525 1.989.589 2.995.196 3.097.301 6.201.419 9.301.014.38-.023.808-.196 1.13-.177.33-.549.555-.835.828-.106-.424-.243-.84-.311-1.268-.241-1.514-.493-3.027-.674-4.544-.181-1.518-.281-3.047-.417-4.771z" fill="#ffb61d"/><path d="m351.639 430.017c-.968-.086-1.835-.274-2.701-.461.766-.355 1.503-.812 2.305-1.049 2.998-.893 5.326-2.378 5.823-5.804.075-.514.515-1.032.908-1.423.19-.192.716-.221.993-.098.241.106.518.546.484.803-.491 3.72-3.951 7.253-7.812 8.032z" fill="#ffb61d"/><path d="m277.943 342.016c-.292 2.366-.741 4.725-1.065 7.1-.368 2.704-.534 5.438-.954 8.132-.404 2.586-1.019 5.138-1.55 7.703-.023.112-.133.207-.203.31-.066-.177-.185-.351-.19-.528-.08-2.615.054-5.18.683-7.767.9-3.703 1.431-7.494 2.174-11.236.248-1.255.664-2.477 1.105-3.714z" fill="#e7eaee"/><path d="m282.218 419.615c.525-.354.948-.611 1.371-.868.188.465.525.925.54 1.395.15 4.98 2.186 6.122 5.576 7.138.533.159 1.037.456 1.505.766.159.106.165.445.241.677-.192-.077-.39-.232-.574-.216-4.506.38-6.914-2.223-8.395-6.02-.329-.84-.255-1.84-.264-2.872z" fill="#ffb61d"/><path d="m328.431 312.547c1.943.383 3.795.838 5.617 1.388.268.081.398.619.592.945-.318-.064-.634-.167-.954-.186-2.539-.147-5.078-.297-7.619-.405-1.172-.05-2.348 0-3.521-.018-.176-.002-.508-.167-.503-.187.112-.423.145-1.062.426-1.207.658-.338 1.439-.602 2.17-.6 1.23.003 2.46.236 3.792.27z" fill="#ffb61d"/><path d="m341.969 215.571v1.02c-.136-.147-.365-.278-.394-.443-.569-3.257-1.121-6.517-1.665-9.779-.487-2.926-.965-5.853-1.425-8.783-.027-.175.147-.382.227-.574.24.105.64.158.692.323.231.725.389 1.478.524 2.229.436 2.427 1.041 4.843 1.224 7.289.214 2.846 1.671 5.575.817 8.718z" fill="#00160a"/><path d="m281.2 391.267c-.144.469-.153.845-.237 1.199-.077.327-.236.629-.36.943-.31-.135-.863-.225-.894-.408-.551-3.231-1.607-6.477-.027-9.712.152-.314.433-.559.654-.84.187.33.513.648.536.987.176 2.574.293 5.151.328 7.831z" fill="#ffb61d"/><path d="m355.1 321.112c-2.48-2.963-5.793-3.61-9.227-3.981-.508-.055-1.066-.062-1.492-.293-.24-.131-.258-.673-.376-1.029.287.034.577.117.86.095 3.388-.257 6.577.273 9.301 2.468.75.604 1.417 1.33 2.03 2.077.222.27.172.763.246 1.154-.413-.13-.827-.259-1.342-.491z" fill="#ffb61d"/><path d="m280.08 404.83c0-.881.279-1.787-.053-2.195-.965-1.183.42-1.285.676-1.884.471.612 1.317 1.203 1.348 1.835.145 2.933.086 5.878.039 8.819-.006.395-.355.783-.545 1.174-.217-.363-.522-.705-.636-1.097-.609-2.104-1.327-4.201-.829-6.652z" fill="#ffb61d"/><path d="m318.863 313.974c-3.286.442-6.47.788-9.656 1.112-.312.032-.638-.076-.957-.118.236-.287.42-.652.715-.847 1.754-1.159 3.699-1.642 5.79-1.466 1.182.099 2.367.222 3.532.434.265.048.454.511.576.885z" fill="#ffb61d"/><path d="m186.839 486.815c1.086.253 1.968.505 2.851.758-1.006.302-2.006.629-3.022.902-.486.126-.999.196-1.503.212-2.165.073-4.331.143-6.497.134-.263-.004-.524-.493-.786-.754.301-.147.592-.384.906-.42 2.613-.298 5.231-.559 8.051-.832z" fill="#00160a"/><path d="m360.699 368.121c0 2.65.035 5.097-.033 7.541-.012.448-.445.885-.685 1.325-.168-.497-.433-.983-.488-1.493-.305-2.806-.626-5.612-.785-8.427-.04-.72.485-1.472.75-2.209.541.332 1.39.56 1.546 1.022.195.578-.178 1.349-.305 2.241z" fill="#ffb61d"/><path d="m360.27 386.932c0 2.65.035 5.097-.033 7.54-.012.449-.445.886-.684 1.326-.168-.498-.433-.983-.489-1.493-.305-2.806-.625-5.612-.784-8.428-.041-.719.485-1.471.75-2.208.541.332 1.389.559 1.545 1.022.196.578-.178 1.349-.305 2.241z" fill="#ffb61d"/><path d="m359.841 405.743c0 2.65.036 5.097-.032 7.54-.013.449-.446.885-.685 1.326-.168-.498-.433-.983-.489-1.493-.304-2.806-.625-5.612-.784-8.428-.041-.719.485-1.471.75-2.209.541.333 1.389.56 1.545 1.023.196.578-.177 1.349-.305 2.241z" fill="#ffb61d"/><path d="m359.841 347.479c0 2.65.036 5.097-.032 7.54-.013.449-.446.885-.685 1.326-.168-.498-.433-.983-.489-1.493-.304-2.806-.625-5.612-.784-8.428-.041-.719.485-1.471.75-2.208.541.332 1.389.559 1.545 1.022.196.578-.177 1.349-.305 2.241z" fill="#ffb61d"/><path d="m382.279 452.96c-1.783.408-3.237 1.232-5.02.865-1.256-.257-2.608-.016-3.914-.073-.269-.013-.524-.347-.785-.535.267-.085.529-.2.803-.249 3.059-.575 6.122-1.117 9.177-1.709.946-.183 1.858-.55 2.806-.701.289-.045.648.346.975.538-.26.143-.513.302-.78.428-1.017.486-2.039.959-3.262 1.436z" fill="#00160a"/><path d="m294.025 317.033c-.182-.293-.263-.484-.343-.675 3.167-.557 6.329-1.156 9.509-1.628.534-.079 1.149.393 1.726.61-.536.327-1.035.82-1.615.95-2.44.551-4.896 1.051-7.368 1.432-.559.086-1.203-.376-1.909-.689z" fill="#ffb61d"/><path d="m420.044 408.399c2.431-1.485 4.76-2.868 7.093-4.242.155-.09.363-.094.546-.135-.061.188-.073.412-.183.567-.75 1.044-1.462 2.125-2.301 3.092-.448.514-1.075.995-1.714 1.199-2.394.754-4.821 1.403-7.248 2.052-.276.073-.623-.09-.94-.147.252-.143.497-.302.757-.424 1.295-.625 2.59-1.24 3.99-1.962z" fill="#00160a"/><path d="m306.546 253.913c.238-.916.477-1.629.716-2.341.032.756.182 1.528.077 2.265-.409 2.871-.818 5.748-1.391 8.589-.308 1.53-.931 2.999-1.459 4.479-.068.192-.417.284-.635.422.083-.193.212-.379.242-.58.568-3.786 1.105-7.575 1.707-11.355.073-.453.487-.851.743-1.479z" fill="#00160a"/><path d="m357.849 334.266c.135-.552.42-.918.382-1.247-.221-1.941-.55-3.87-.764-5.811-.045-.41.234-.856.363-1.285.414.356 1.071.639 1.201 1.079 1.015 3.424.25 6.945.436 10.42.009.166-.129.34-.198.511-.066-.175-.128-.353-.2-.525-.405-.98-.813-1.959-1.22-3.142z" fill="#ffb61d"/><path d="m327.312 409.724c-1.369-.134-2.536-.253-3.696-.42-.272-.037-.523-.224-.783-.343.18-.265.305-.611.551-.774.359-.237.804-.474 1.214-.478 2.581-.02 5.212-.428 7.667.796.251.122.498.257.747.387-.324.261-.634.73-.973.751-1.503.098-3.015.065-4.727.081z" fill="#ffb61d"/><path d="m281.302 355.884c-.011 1.303.039 2.409-.073 3.497-.032.313-.533.577-.819.864-.11-.276-.196-.563-.333-.825-1.605-3.063-1.237-6.292-.806-9.526.024-.181.125-.352.191-.528.07.169.159.332.208.506.548 1.935 1.089 3.872 1.632 6.012z" fill="#ffb61d"/><path d="m303.187 380.254c.206-.306.312-.51.417-.713.113.122.319.236.326.367.139 2.732.307 5.465.34 8.202.008.649-.451 1.301-.695 1.954-.284-.502-.715-.971-.827-1.509-.577-2.749-1.221-5.527.439-8.301z" fill="#ffb61d"/><path d="m304.51 370.975c0 1.016-.007 1.827.003 2.639.005.343.046.689.07 1.032-.431-.224-1.219-.424-1.24-.685-.224-2.729-.405-5.469-.382-8.204.004-.44 1.067-.871 1.64-1.307-.03.486-.084.972-.087 1.458-.011 1.621-.004 3.243-.004 5.067z" fill="#ffb61d"/><path d="m184.498 493.647c-.119-.306-.158-.685-.149-.685 2.347-.298 4.696-.584 7.048-.837.537-.057 1.133-.142 1.613.029.559.2 1.02.673 1.524 1.024-.655.269-1.29.612-1.969.787-.631.159-1.312.212-1.965.179-2.002-.097-4-.257-6.102-.497z" fill="#00160a"/><path d="m304.001 402.892c-1.193-2.003-.883-4.062-.669-6.081.052-.482.645-.91.99-1.363.198.384.559.763.569 1.15.069 2.697-.178 5.425 1.141 7.946.088.167-.054.457-.089.685-.183-.04-.458-.02-.535-.134-.46-.681-.875-1.395-1.407-2.203z" fill="#ffb61d"/><path d="m337.185 373.32c.034-.587.302-1.081.28-1.558-.062-1.305-.341-2.605-.345-3.907-.002-.724.374-1.45.58-2.175.431.704 1.157 1.376 1.236 2.117.209 1.98.226 3.994.136 5.984-.031.694-.601 1.363-.925 2.044-.143-.522-.265-1.049-.438-1.558-.099-.298-.279-.563-.524-.947z" fill="#ffb61d"/><path d="m293.619 284.606c-.238.52-.375.938-.509 1.356-.058.18-.11.361-.164.542-.081-.211-.257-.435-.229-.63.306-2.216.525-4.454 1.006-6.633.464-2.104 1.21-4.145 1.828-6.215.072-.242.123-.491.184-.737.075.226.228.458.212.676-.111 1.459-.127 2.943-.424 4.366-.503 2.412-1.192 4.784-1.904 7.275z" fill="#00160a"/><path d="m307.259 340.691c1.965-.411 3.842-.782 5.626.168.283.15.392.629.581.955-.31.068-.617.164-.93.197-1.361.148-2.734.215-4.08.442-.593.099-1.142.493-1.694.784-.351.184-.672.424-1.006.639-.008-.56-.201-1.214.022-1.658.283-.564.904-.958 1.481-1.527z" fill="#ffb61d"/><path d="m318.761 182.532c-.604 2.85-1.202 5.496-1.833 8.134-.032.131-.363.191-.555.284-.068-.376-.254-.773-.188-1.124.561-2.994 1.17-5.98 1.758-8.97.038-.194-.045-.44.046-.59.376-.619.798-1.21 1.203-1.812-.008.669.034 1.344-.038 2.007-.069.629-.257 1.246-.393 2.071z" fill="#00160a"/><path d="m157.931 460.71c-.013 1.171-.025 2.133-.051 3.1-.001.016-.258.053-.263.041-.312-.955-.813-1.905-.867-2.876-.128-2.292-.06-4.601-.022-6.897.006-.375.265-.747.407-1.118.265.396.745.783.759 1.187.077 2.117.037 4.242.037 6.563z" fill="#00160a"/><path d="m335.861 391.777c0-2.28-.128-4.368.07-6.428.069-.722.938-1.367 1.441-2.048.04.681.141 1.371.106 2.048-.103 2.043-.226 4.091-.447 6.122-.023.208-.168 1.791-1.17.306z" fill="#ffb61d"/><path d="m349.196 251.567c.238 1.835.383 3.566.497 5.3.015.23-.13.471-.201.708-.065-.245-.136-.488-.193-.735-.766-3.304-1.57-6.601-2.272-9.919-.247-1.171-.262-2.393-.341-3.594-.015-.233.167-.479.257-.719.106.218.259.425.312.656.622 2.732 1.229 5.467 1.941 8.303z" fill="#00160a"/><path d="m352.658 270.942c.404 2.173.707 4.243 1.008 6.314.062.423.235.875.144 1.265-.119.509-.449.97-.689 1.451-.053-.453-.075-.913-.163-1.359-.575-2.906-1.227-5.799-1.722-8.718-.247-1.452-.222-2.951-.299-4.43-.009-.173.12-.353.184-.53.096.226.229.443.282.679.393 1.74.771 3.484 1.255 5.328z" fill="#00160a"/><path d="m344.82 229.439c.322 1.649.653 3.091.956 4.54.034.164-.158.372-.131.541.123.758.287 1.508.437 2.261-.517-1.059-1.262-2.07-1.499-3.188-.393-1.851-.441-3.773-.664-5.662-.223-1.888-.49-3.771-.718-5.659-.021-.171.098-.36.152-.541.081.074.222.138.236.223.418 2.426.823 4.854 1.231 7.485z" fill="#00160a"/><path d="m301.253 278.794c.542-2.712 1.082-5.221 1.636-7.727.03-.134.173-.243.263-.363.046.184.113.367.133.554.417 3.829-.983 7.334-1.957 10.913-.057.21-.275.376-.418.562-.157-.273-.489-.582-.442-.814.201-.986.513-1.95.785-3.125z" fill="#00160a"/><path d="m328.941 164.993c-.326-.557-.678-1.522-.532-1.605.803-.453 1.834-1.101 2.584-.904 1.037.273 1.893 1.237 2.826 1.905-1.142.337-2.272.732-3.434.979-.371.079-.825-.238-1.444-.375z" fill="#00160a"/><path d="m357.442 300.004c-.407-.776-.95-1.723-1.195-2.742-.604-2.514-1.125-5.052-1.557-7.602-.119-.706.185-1.488.316-2.232.028-.156.151-.295.23-.442.057.18.128.356.167.539.717 3.311 1.464 6.615 2.116 9.937.147.746-.043 1.557-.077 2.542z" fill="#00160a"/><path d="m162.817 457.039c-.196.673-.392 1.142-.588 1.611-.211-.236-.532-.436-.616-.709-.601-1.946-1.157-3.924-.403-5.951.153-.412.589-.714.894-1.069.237.424.657.832.68 1.264.083 1.546.033 3.1.033 4.854z" fill="#00160a"/><path d="m304.51 349.766c0 2.311.038 4.419-.026 6.524-.017.537-.357 1.065-.548 1.597-.216-.497-.604-.99-.618-1.494-.066-2.4-.048-4.803.001-7.204.004-.22.433-.431.665-.647.175.341.351.68.526 1.224z" fill="#ffb61d"/><path d="m310.313 406.767c-.238-.608-.374-1.117-.509-1.627.365.167.716.412 1.1.493 2.612.567 5.231 1.101 7.849 1.644.25.053.503.094.755.139-.256.089-.509.248-.768.261-1.89.085-3.787.253-5.669.155-.9-.045-1.772-.624-2.758-1.065z" fill="#ffb61d"/><path d="m338.305 357.516c-.272-1.849-.552-3.492-.807-5.139-.052-.33-.106-.715.012-1.005.28-.692.662-1.342 1.002-2.01.248.837.666 1.665.708 2.512.08 1.619.013 3.256-.139 4.871-.052.551-.542 1.059-.832 1.587.019-.204.037-.408.056-.816z" fill="#ffb61d"/><path d="m334.742 403.912c.306-1.008.679-1.934 1.138-2.815.16-.306.531-.505.805-.754.133.314.407.64.374.93-.156 1.378.61 2.855-.39 4.132-.408.522-.897.979-1.349 1.464-.091-.575-.179-1.15-.274-1.725-.062-.38-.134-.755-.304-1.232z" fill="#ffb61d"/><path d="m316.726 164.178c.734.616 2.584.944 1.296 1.98-.947.76-2.663.587-4.046.723-.131.012-.478-.748-.462-1.139.012-.299.386-.711.696-.842.74-.313 1.538-.49 2.516-.722z" fill="#00160a"/><path d="m322.018 341.608c-1.082-.335-1.96-.671-2.838-1.007 1.082-.48 2.153-1.308 3.249-1.343 1.106-.034 2.237.715 3.35 1.142.035.014.009.366-.034.377-1.171.292-2.347.56-3.727.831z" fill="#ffb61d"/><path d="m302.881 246.163c-.527 1.955-1.046 3.709-1.592 5.455-.059.186-.276.323-.42.483-.048-.24-.185-.504-.129-.717.834-3.183 1.692-6.36 2.551-9.537.081-.298.205-.586.308-.878.144.463.487.973.394 1.383-.279 1.223-.729 2.407-1.112 3.811z" fill="#00160a"/><path d="m298.81 263.294c-.407 1.392-.808 2.582-1.228 3.765-.073.206-.23.382-.348.571-.067-.239-.229-.498-.187-.716.339-1.731.683-3.463 1.093-5.178.307-1.287.678-2.563 1.093-3.819.182-.55.545-1.04.825-1.557-.145.479-.342.948-.424 1.437-.296 1.761-.553 3.528-.824 5.497z" fill="#00160a"/><path d="m333.419 341.201c.681.614 1.275 1.173 1.602 1.86.289.607.282 1.356.406 2.042-.478-.361-.965-.712-1.432-1.086-.764-.613-1.53-1.227-2.267-1.872-.335-.293-.604-.663-.903-.998.65-.118 1.297-.261 1.953-.333.13-.014.29.251.641.387z" fill="#ffb61d"/><g fill="#00160a"><path d="m313.163 229.134c-.342.542-.581.982-.82 1.422-.001-.472-.077-.958.011-1.413.404-2.091.812-4.184 1.309-6.255.177-.737.603-1.415.93-2.113.055-.116.186-.195.282-.291.074.229.247.478.206.684-.345 1.707-.717 3.408-1.105 5.106-.212.925-.473 1.839-.813 2.86z"/><path d="m308.989 242.084c.543-1.801 1.07-3.404 1.644-4.991.099-.274.395-.477.601-.713-.01.278.019.565-.037.834-.729 3.498-1.469 6.994-2.213 10.489-.036.168-.143.321-.217.482-.061-.177-.187-.358-.175-.53.119-1.79.261-3.578.397-5.571z"/><path d="m296.876 293.988c.577-1.529 1.06-2.952 1.521-4.383.103-.322.072-.693.204-.999.242-.56.559-1.088.844-1.629.06.719.328 1.498.14 2.146-.571 1.982-1.305 3.918-2.009 5.859-.123.339-.407.619-.617.925.067-.326.208-.66.179-.978-.025-.289-.235-.56-.262-.941z"/><path d="m291.073 290.622c.271-.185.543-.166.815-.147-.446 2.331-.887 4.663-1.342 6.992-.06.304-.164.606-.294.887-.136.292-.327.557-.494.834-.009-.3-.069-.609-.018-.898.433-2.49.886-4.976 1.333-7.668z"/><path d="m276.314 372.097c-.442 1.913-.777 3.724-1.124 5.535-.044.224-.149.44-.225.66-.059-.244-.191-.497-.167-.73.253-2.467.523-4.935.823-7.398.019-.155.325-.275.497-.412.099.143.276.281.284.428.032.603.013 1.211-.088 1.917z"/><path d="m340.443 169.99c-.761-.423-1.421-.947-2.081-1.472.52-.423.998-.922 1.576-1.239.317-.174.887-.195 1.197-.022 1.539.857 1.397 1.436-.692 2.733z"/><path d="m337.49 188.243c.271 1.941.554 3.677.8 5.418.03.214-.133.454-.207.682-.095-.231-.167-.475-.289-.691-1.123-1.994-1.355-4.143-1.112-6.372.038-.35.157-.69.239-1.035.054.316.075.642.171.945.093.296.262.567.398 1.053z"/><path d="m321.204 198.032c-.62.943-1.24 1.682-1.86 2.42.213-.944.446-1.885.632-2.835.165-.84.275-1.69.414-2.535.062-.376.137-.75.205-1.126.203.457.526.9.582 1.374.096.822.027 1.665.027 2.702z"/><path d="m136.351 458.671c-.055.938-.109 1.672-.163 2.406-.271-.122-.728-.188-.784-.375-.285-.951-.578-1.929-.623-2.908-.017-.367.629-.763.973-1.147.463.518 1.319.91.597 2.024z"/><path d="m306.546 229.847c-.495 2.196-.984 4.189-1.5 6.174-.03.118-.272.181-.416.269-.04-.187-.142-.385-.11-.56.212-1.176.404-2.359.7-3.516.234-.909.589-1.79.926-2.67.172-.446.424-.862.639-1.292-.08.464-.16.928-.239 1.595z"/><path d="m295.043 304.389c-.244.503-.386.904-.528 1.306-.198-.392-.587-.8-.556-1.173.103-1.234.326-2.463.588-3.675.042-.193.524-.292.803-.434.067.175.207.357.191.523-.114 1.119-.26 2.234-.498 3.453z"/><path d="m335.964 177.536c.306 1.104.527 2.104.696 3.113.033.19-.144.414-.224.623-.055-.177-.104-.356-.168-.53-.401-1.1-.806-2.198-1.209-3.297.268-.004.535-.007.905.091z"/><path d="m313.569 197.93c.09-.293.281-.485.473-.677.145.671.41 1.344.396 2.011-.011.532-.337 1.067-.572 1.579-.189.414-.45.795-.679 1.191.01-.503-.025-1.013.042-1.508.113-.836.291-1.663.34-2.596z"/><path d="m429.206 473.864c.574-.371 1.022-.787 1.527-.881.623-.114 1.295.041 1.942.078-.48.135-1.01.188-1.433.428-.603.343-1.124.824-1.682 1.244-.154-.253-.305-.51-.354-.869z"/><path d="m126.884 451.737c-.071.138-.224.346-.419.395-1.008.265-2.027.49-3.041.73.026-.098.034-.265.082-.277 1.089-.294 2.183-.567 3.378-.848z"/><path d="m127.088 451.899c.005-.165.096-.456.221-.481.804-.161 1.616-.272 2.426-.387.014-.005.039.11.06.166-.869.236-1.737.472-2.707.702z"/><path d="m259.432 452.96c.442.812.449 1.628.457 2.439-.297-.811-.594-1.627-.457-2.439z"/><path d="m152.602 457.855c-.067.649-.132 1.097-.198 1.542-.238-.212-.727-.453-.664-.628.139-.392.557-.747.862-.914z"/><path d="m435.618 489.908c-.7.217-1.401.234-2.097.2-.114 0-.22-.244-.33-.374.159-.156.326-.469.481-.452.651.087 1.299.27 1.946.626z"/><path d="m350.623 261.765c.384.354.641.811.897 1.267-.163.026-.458.094-.47.071-.205-.405-.377-.822-.427-1.338z"/><path d="m309.396 216.795c.198-.523.396-.842.595-1.162.095.12.3.277.27.353-.214.527-.477 1.037-.723 1.552-.048-.18-.095-.359-.142-.743z"/><path d="m694.982 501.397c-.114.057-.272.045-.333-.041-.31-.4-.599-.812-.876-1.232-.012-.016.147-.143.228-.216.326.461.652.926.981 1.489z"/><path d="m135.638 449.391c.278-.005.454.109.631.224-.535.218-1.07.431-1.605.645.116-.164.212-.362.354-.487.15-.124.344-.173.62-.382z"/><path d="m155.59 427.114c.837-.044 1.573.121 2.309.286-.804-.017-1.608-.043-2.309-.286z"/><path d="m367.621 452.96c.093-.245.226-.351.272-.322.461.298.907.616 1.357.93-.543-.135-1.086-.269-1.629-.608z"/><path d="m169.026 485.002c.298-.217.498-.269.69-.2.406.131.808.322 1.212.487-.435.121-.868.313-1.303.339-.232.017-.467-.261-.599-.626z"/><path d="m203.635 424.065c-.102-.071-.125-.199-.099-.212.451-.229.905-.454 1.368-.656.035-.013.142.163.217.251-.462.207-.923.414-1.486.617z"/><path d="m167.697 415.269.384 2.424c.059.371.216.838.429 1.307l.358.308c.212.175.246.165.364.133l.119-.013.104-.025.477-.159 1.108-.357-1.183-1.298z"/><path d="m540.769 521.442c.399-.232.899-.463 1.4-.695-.061.309-.118.867-.179.867-.375.017-.745-.103-1.221-.172z"/><path d="m367.924 381.274c.296-.053.471-.008.467.037-.048.485-.124.971-.192 1.46-.234-.155-.636-.306-.665-.469-.054-.302.111-.616.39-1.028z"/><path d="m322.324 563.815c.358.104.615.426.871.747-.501.026-1.002.052-1.503.078.177-.2.353-.399.632-.825z"/><path d="m606.934 564.136c-.298.217-.501.269-.692.209-.408-.131-.807-.322-1.21-.496.432-.121.867-.312 1.303-.33.228-.017.464.261.599.617z"/><path d="m473.01 348.301 1.631-1.539-2.372.263-.979.099c-.33.037-.56.071-.827.121-.237.045-.399.12-.63.27l-.338.225-1.33.766 1.473.599c.614.25.981.376 1.426.456l.538.084.653-.628c.209-.2.428-.408.755-.716z"/><path d="m468.111 350.426-.186-.872-.827.332c-.646.259-1.085.497-1.477.812-.194.16-.285.347-.332.56-.016.072-.023.126-.031.211l-.016.186-.191.934.961-.034c.746-.027 1.06-.069 1.44-.284.62-.352.836-1.011.659-1.845z"/><path d="m501.24 351.074c-.297.017-.526.069-.926.195l-.534.169-2.078.586 2.242.935.571.243c.162.066.297.115.445.164.465.152.902.026 1.367-.315l.458-.334-.197-.532c-.244-.654-.704-1.15-1.348-1.111z"/><path d="m437.786 347.36 2.377-2.068-3.785.756c-.245.051-.441.096-.643.15-.206.053-.338.132-.502.273l-.201.181-1.018.709-2.849 1.974 3.411-.62c.508-.092.82-.145 1.171-.195l.527-.069.134-.08c.508-.301.837-.547 1.378-1.011z"/><path d="m435.221 350.365-.451-.96-.755.745c-.18.179-.332.326-.483.47l-1.523 1.418 3.344.344.021-.81c.016-.634.001-.879-.153-1.207z"/><path d="m422.07 338.769-.962.154c-.246.04-.347.044-.514.011l-.231-.044-.215.095c-.609.27-1.141.615-1.778 1.121-.184.144-.263.269-.349.488l-.073.197-.377.811.863.229.041.017c.093.037.148.056.23.075.17.039.343.041.528-.025l.889-.326c.569-.215.955-.374 1.39-.575.371-.175.458-.42.487-.76l.007-.116-.005-.384z"/><path d="m424.231 344.726 5.917-2.746-6.18 1.238c-.631.127-1.33.326-2.318.646l-.223.116-.239.329c-.019.03-.023.043-.029.064l-.026.161c-.004.029-.003.043-.002.071l.01.102.028.118.058.212.211.814 1.334-.514c.585-.229.998-.401 1.459-.611z"/><path d="m424.683 346.357-1.113-.616v1.272c0 .541.149.996.489 1.347.211.209.417.262.669.271.074.002.13.001.223-.005l.256-.016 1.598.021-1.005-1.243c-.443-.549-.685-.792-1.117-1.031z"/></g></g></svg>